<svg id="svg" version="1.1" xmlns="http://www.w3.org/2000/svg" xmlns:xlink="http://www.w3.org/1999/xlink" width="400" height="400" viewBox="0, 0, 400,400"><g id="svgg"><path id="path0" d="M274.495 74.614 C 268.592 75.654,262.108 80.105,260.676 84.100 C 260.538 84.485,260.239 84.800,260.013 84.800 C 259.786 84.800,259.600 85.160,259.600 85.600 C 259.600 86.040,259.420 86.400,259.200 86.400 C 258.980 86.400,258.800 86.850,258.800 87.400 C 258.800 87.950,258.599 88.400,258.353 88.400 C 256.537 88.400,259.039 102.973,261.266 105.363 C 261.664 105.791,262.095 106.469,262.222 106.871 C 262.350 107.272,262.580 107.600,262.735 107.600 C 262.889 107.600,264.092 108.408,265.408 109.396 C 266.724 110.383,268.025 111.193,268.300 111.196 C 268.575 111.198,268.800 111.380,268.800 111.600 C 268.800 112.228,266.125 112.068,265.457 111.400 C 264.710 110.653,264.212 110.646,263.086 111.368 C 262.217 111.925,261.322 112.067,255.124 112.628 C 249.062 113.176,223.609 111.599,208.600 109.745 C 205.960 109.419,202.090 108.985,200.000 108.781 C 194.475 108.242,188.372 107.328,181.200 105.967 C 174.535 104.701,160.217 100.915,158.231 99.893 C 157.807 99.676,155.500 98.824,153.103 98.001 C 150.706 97.179,148.542 96.302,148.293 96.053 C 147.733 95.493,144.938 95.453,144.600 96.000 C 144.464 96.220,143.889 96.400,143.321 96.400 C 142.453 96.400,140.688 97.642,138.312 99.923 C 136.626 101.542,134.400 105.121,134.400 106.212 C 134.400 106.482,134.149 106.911,133.841 107.166 C 133.534 107.421,133.368 107.956,133.472 108.355 C 133.577 108.754,133.370 109.373,133.012 109.731 C 132.576 110.167,132.392 110.951,132.452 112.114 C 132.501 113.067,132.386 114.099,132.195 114.407 C 131.417 115.668,132.501 124.230,133.804 127.101 C 136.623 133.318,143.957 137.225,157.600 139.780 C 158.370 139.924,159.630 140.203,160.400 140.399 C 162.095 140.830,171.307 142.217,176.000 142.748 C 177.870 142.959,182.603 143.597,186.519 144.166 C 190.434 144.735,195.654 145.378,198.119 145.596 C 200.583 145.814,204.490 146.180,206.800 146.409 C 209.110 146.638,212.800 146.998,215.000 147.208 C 237.661 149.375,258.187 147.720,265.867 143.109 C 274.638 137.841,277.300 123.330,271.141 114.355 C 270.351 113.203,270.546 112.640,271.553 113.168 C 276.482 115.758,285.891 113.446,291.448 108.281 C 295.187 104.805,296.615 101.691,297.776 94.479 C 297.982 93.199,296.924 86.804,296.440 86.400 C 296.200 86.200,295.453 84.952,294.613 83.351 C 292.989 80.253,288.399 75.837,286.336 75.389 C 285.601 75.229,284.550 74.923,284.000 74.709 C 282.432 74.100,277.683 74.052,274.495 74.614 " stroke="none" fill="#f2f1ef" fill-rule="evenodd"></path><path id="path1" d="M65.200 59.068 C 64.430 59.172,63.629 59.424,63.420 59.629 C 63.211 59.833,62.726 60.000,62.343 60.000 C 60.825 60.000,54.400 65.150,54.400 66.367 C 54.400 66.568,54.265 66.793,54.100 66.867 C 53.609 67.085,52.000 70.416,52.000 71.214 C 52.000 71.620,51.820 72.064,51.600 72.200 C 51.380 72.336,51.200 73.135,51.200 73.975 C 51.200 74.815,50.955 75.705,50.655 75.954 C 49.949 76.540,49.672 253.486,50.374 255.332 C 50.668 256.106,51.375 256.688,52.698 257.248 C 55.296 258.346,72.480 266.696,76.000 268.570 C 76.990 269.097,79.444 270.330,81.454 271.309 C 88.034 274.515,89.540 276.528,88.401 280.596 C 86.886 286.007,81.455 287.272,75.278 283.653 C 73.393 282.548,63.086 277.462,58.600 275.422 C 56.080 274.276,55.559 274.013,53.295 272.741 C 52.528 272.310,51.517 272.012,51.050 272.079 L 50.200 272.200 50.096 292.576 C 50.034 304.867,50.141 313.101,50.367 313.327 C 50.736 313.696,53.101 312.682,58.000 310.056 C 69.961 303.646,80.083 299.106,82.005 299.291 C 89.648 300.025,91.147 309.441,84.123 312.600 C 82.845 313.175,80.360 314.371,78.600 315.258 C 63.040 323.100,59.375 324.867,53.099 327.557 C 51.426 328.275,50.453 329.600,51.600 329.600 C 51.820 329.600,52.000 330.320,52.000 331.200 C 52.000 332.080,52.180 332.800,52.400 332.800 C 52.620 332.800,52.800 333.329,52.800 333.976 C 52.800 334.623,52.980 335.264,53.200 335.400 C 53.420 335.536,53.600 335.999,53.600 336.429 C 53.600 336.859,53.808 337.613,54.062 338.105 C 55.033 339.982,55.200 340.407,55.200 340.995 C 55.200 341.328,55.358 341.600,55.551 341.600 C 55.745 341.600,56.140 342.185,56.429 342.900 C 56.718 343.615,57.055 344.290,57.177 344.400 C 57.646 344.821,58.400 346.415,58.400 346.986 C 58.400 348.402,64.742 356.278,67.430 358.200 C 68.662 359.081,70.886 360.858,71.200 361.213 C 71.310 361.337,72.030 361.871,72.800 362.400 C 73.570 362.929,74.470 363.649,74.800 364.000 C 75.811 365.075,77.888 366.400,78.562 366.400 C 78.913 366.400,79.200 366.580,79.200 366.800 C 79.200 367.020,79.560 367.200,80.000 367.200 C 80.440 367.200,80.800 367.380,80.800 367.600 C 80.800 367.820,81.160 368.000,81.600 368.000 C 82.040 368.000,82.400 368.180,82.400 368.400 C 82.400 368.620,82.636 368.800,82.925 368.800 C 83.214 368.800,84.195 369.160,85.106 369.600 C 86.016 370.040,87.119 370.400,87.557 370.400 C 87.995 370.400,88.464 370.580,88.600 370.800 C 88.736 371.020,89.377 371.200,90.024 371.200 C 90.794 371.200,91.200 371.404,91.200 371.790 C 91.200 372.225,91.499 372.320,92.335 372.153 C 93.023 372.015,93.692 372.137,94.035 372.463 C 94.378 372.789,95.594 373.010,97.131 373.026 C 98.523 373.041,99.783 373.221,99.931 373.426 C 100.243 373.859,300.800 373.958,300.800 373.525 C 300.800 373.373,301.655 373.143,302.700 373.013 C 305.593 372.655,308.955 371.911,309.380 371.536 C 309.589 371.351,310.163 371.200,310.656 371.200 C 311.149 371.200,311.675 371.003,311.823 370.762 C 311.972 370.522,312.514 370.405,313.027 370.503 C 313.580 370.609,314.044 370.461,314.167 370.141 C 314.282 369.843,314.741 369.600,315.187 369.600 C 315.634 369.600,316.000 369.420,316.000 369.200 C 316.000 368.980,316.272 368.800,316.605 368.800 C 317.251 368.800,317.886 368.529,319.800 367.436 C 320.460 367.059,321.315 366.651,321.700 366.529 C 322.085 366.407,322.400 366.148,322.400 365.953 C 322.400 365.759,322.740 365.600,323.155 365.600 C 323.570 365.600,324.335 365.062,324.855 364.404 C 325.375 363.746,325.933 363.206,326.097 363.204 C 326.482 363.199,329.802 360.681,331.629 359.008 C 332.415 358.288,333.405 357.580,333.829 357.436 C 334.253 357.291,335.291 356.296,336.135 355.224 C 336.979 354.152,337.977 352.944,338.352 352.538 C 339.787 350.984,341.600 348.020,341.600 347.228 C 341.600 346.773,341.735 346.399,341.900 346.399 C 342.065 346.398,342.650 345.408,343.200 344.200 C 343.750 342.992,344.335 342.002,344.500 342.001 C 344.665 342.001,344.800 341.730,344.800 341.400 C 344.800 341.070,344.980 340.800,345.200 340.800 C 345.420 340.800,345.600 340.350,345.600 339.800 C 345.600 339.250,345.780 338.800,346.000 338.800 C 346.220 338.800,346.400 338.361,346.400 337.824 C 346.400 337.287,346.580 336.736,346.800 336.600 C 347.020 336.464,347.200 335.913,347.200 335.376 C 347.200 334.805,347.433 334.400,347.762 334.400 C 348.187 334.400,348.271 334.009,348.109 332.800 C 347.968 331.749,348.050 331.200,348.347 331.200 C 348.609 331.200,348.800 330.524,348.800 329.600 C 348.800 328.720,348.609 328.000,348.375 328.000 C 347.594 328.000,329.885 319.547,322.583 315.688 C 321.034 314.870,318.794 313.780,317.605 313.268 C 313.449 311.475,312.007 309.722,312.003 306.460 C 311.995 299.925,317.363 297.493,324.060 300.998 C 325.677 301.844,329.520 303.774,332.600 305.286 C 342.907 310.347,345.774 311.794,347.284 312.700 C 348.109 313.195,348.968 313.600,349.192 313.600 C 349.464 313.600,349.600 306.670,349.600 292.800 C 349.600 278.284,349.471 272.000,349.172 272.000 C 348.936 272.000,347.721 272.530,346.472 273.178 C 345.222 273.826,343.049 274.861,341.642 275.478 C 340.235 276.095,335.040 278.621,330.098 281.090 C 318.676 286.798,316.876 287.089,313.721 283.743 C 309.467 279.233,311.073 275.039,318.400 271.519 C 320.710 270.409,323.050 269.248,323.600 268.937 C 324.150 268.627,327.390 267.020,330.800 265.366 C 334.210 263.712,337.450 262.097,338.000 261.776 C 338.550 261.455,340.350 260.559,342.000 259.784 C 343.650 259.009,345.313 258.201,345.695 257.988 C 346.077 257.774,346.637 257.600,346.941 257.600 C 347.244 257.600,347.966 257.227,348.546 256.771 L 349.600 255.942 349.600 164.771 C 349.600 104.257,349.465 73.600,349.200 73.600 C 348.980 73.600,348.800 72.981,348.800 72.224 C 348.800 71.467,348.620 70.736,348.400 70.600 C 348.180 70.464,348.000 70.003,348.000 69.576 C 348.000 69.149,347.850 68.800,347.668 68.800 C 347.485 68.800,347.080 68.305,346.768 67.700 C 346.456 67.095,346.111 66.510,346.001 66.400 C 345.890 66.290,344.959 65.197,343.930 63.972 C 342.245 61.963,340.939 61.075,337.295 59.460 C 333.761 57.894,320.800 60.551,320.800 62.842 C 320.800 63.039,320.518 63.200,320.174 63.200 C 319.321 63.200,296.800 85.857,296.800 86.715 C 296.800 87.092,297.063 88.658,297.385 90.196 C 298.706 96.510,296.331 103.742,291.444 108.285 C 285.891 113.446,276.480 115.757,271.553 113.168 C 270.546 112.640,270.351 113.203,271.141 114.355 C 277.300 123.330,274.638 137.841,265.867 143.109 C 258.187 147.720,237.661 149.375,215.000 147.208 C 212.800 146.998,209.110 146.638,206.800 146.409 C 204.490 146.180,200.583 145.814,198.119 145.596 C 195.654 145.378,190.434 144.735,186.519 144.166 C 182.603 143.597,177.870 142.959,176.000 142.748 C 171.307 142.217,162.095 140.830,160.400 140.399 C 159.630 140.203,158.370 139.924,157.600 139.780 C 143.957 137.225,136.623 133.318,133.804 127.101 C 132.548 124.333,131.412 115.675,132.148 114.484 C 132.329 114.191,132.220 114.000,131.871 114.000 C 131.554 114.000,130.816 113.372,130.230 112.604 C 128.875 110.828,126.723 108.804,126.186 108.802 C 125.959 108.801,125.468 108.285,125.096 107.655 C 124.299 106.306,110.410 92.477,108.981 91.610 C 108.441 91.283,108.000 90.825,108.000 90.592 C 108.000 90.047,93.640 75.695,92.252 74.853 C 91.673 74.502,91.200 74.017,91.200 73.776 C 91.200 73.299,83.353 65.423,81.400 63.939 C 80.740 63.438,80.110 62.910,80.000 62.765 C 79.707 62.380,75.624 60.283,74.000 59.683 C 72.473 59.118,67.430 58.766,65.200 59.068 M72.600 80.646 C 73.440 81.202,89.920 97.459,93.452 101.217 C 94.580 102.418,98.457 106.280,102.066 109.800 C 115.367 122.773,116.399 124.989,111.685 130.456 C 110.648 131.659,109.440 133.072,109.000 133.598 C 107.500 135.390,73.804 168.988,72.800 169.693 C 70.078 171.604,65.012 170.210,63.300 167.079 C 62.277 165.209,61.991 87.438,62.996 84.412 C 64.363 80.298,69.202 78.400,72.600 80.646 M335.100 81.056 C 337.763 83.073,337.600 80.193,337.600 125.321 L 337.600 166.282 336.700 167.600 C 335.429 169.463,333.453 170.401,330.806 170.397 C 327.922 170.394,328.202 170.618,317.524 159.797 C 306.230 148.353,301.218 143.327,295.935 138.147 C 284.569 127.005,284.000 124.890,290.460 117.800 C 297.399 110.187,327.491 80.618,328.800 80.128 C 330.689 79.420,333.485 79.832,335.100 81.056 M248.300 112.696 C 249.675 112.774,251.925 112.774,253.300 112.696 C 254.675 112.618,253.550 112.554,250.800 112.554 C 248.050 112.554,246.925 112.618,248.300 112.696 M146.908 208.988 C 167.842 213.424,165.441 248.539,144.200 248.591 C 122.318 248.645,119.681 213.808,141.200 208.962 C 144.040 208.323,143.765 208.322,146.908 208.988 M261.005 209.602 C 278.756 215.709,278.373 241.945,260.444 247.985 C 253.281 250.398,244.170 246.201,241.027 239.040 C 233.738 222.433,245.959 204.425,261.005 209.602 M29.200 247.843 C 29.200 248.265,29.418 248.402,29.833 248.243 C 30.181 248.109,30.721 248.000,31.033 248.000 C 31.345 248.000,31.600 247.820,31.600 247.600 C 31.600 247.380,31.060 247.200,30.400 247.200 C 29.564 247.200,29.200 247.395,29.200 247.843 M368.353 247.500 C 368.327 247.665,368.327 247.935,368.353 248.100 C 368.379 248.265,368.029 248.400,367.576 248.400 C 367.123 248.400,366.864 248.580,367.001 248.801 C 367.166 249.069,367.497 249.069,367.998 248.801 C 368.410 248.580,369.384 248.400,370.161 248.400 C 371.253 248.400,371.523 248.264,371.345 247.800 C 371.109 247.186,368.444 246.919,368.353 247.500 M208.118 248.419 C 218.795 250.392,220.272 258.108,211.713 267.200 C 202.208 277.298,195.138 276.382,185.368 263.788 C 181.222 258.445,182.436 251.799,187.977 249.496 C 191.232 248.144,203.174 247.505,208.118 248.419 M373.600 249.400 C 373.600 249.730,373.780 250.000,374.000 250.000 C 374.220 250.000,374.400 249.730,374.400 249.400 C 374.400 249.070,374.220 248.800,374.000 248.800 C 373.780 248.800,373.600 249.070,373.600 249.400 M24.400 253.800 C 24.400 254.350,24.469 254.800,24.553 254.800 C 24.638 254.800,24.793 254.350,24.898 253.800 C 25.003 253.250,24.934 252.800,24.745 252.800 C 24.555 252.800,24.400 253.250,24.400 253.800 M27.067 259.067 C 26.606 259.527,26.775 260.000,27.400 260.000 C 27.730 260.000,28.000 259.730,28.000 259.400 C 28.000 258.775,27.527 258.606,27.067 259.067 M170.000 280.542 C 172.402 281.769,173.901 284.217,174.461 287.833 C 176.303 299.711,190.915 299.287,192.409 287.312 C 193.720 276.801,206.650 277.149,207.991 287.732 C 208.471 291.517,208.833 292.395,210.525 293.880 C 216.460 299.091,225.962 295.113,226.002 287.400 C 226.046 278.705,238.899 276.904,241.377 285.246 C 243.442 292.201,234.997 306.342,227.298 308.822 C 226.474 309.087,225.620 309.445,225.400 309.616 C 224.852 310.044,220.635 311.079,218.200 311.383 C 213.720 311.942,205.756 309.420,201.822 306.196 L 200.065 304.757 197.700 306.556 C 191.299 311.424,181.879 312.764,175.000 309.785 C 174.340 309.499,172.990 308.921,172.000 308.499 C 165.875 305.891,159.144 296.221,158.498 289.103 C 157.885 282.351,164.257 277.609,170.000 280.542 M28.800 325.800 C 28.800 326.130,28.980 326.400,29.200 326.400 C 29.420 326.400,29.600 326.130,29.600 325.800 C 29.600 325.470,29.420 325.200,29.200 325.200 C 28.980 325.200,28.800 325.470,28.800 325.800 M26.200 326.505 C 25.401 327.294,25.401 327.295,26.400 327.003 C 27.706 326.621,28.186 326.155,27.527 325.911 C 27.237 325.803,26.640 326.071,26.200 326.505 M373.300 326.688 C 372.732 326.891,372.611 328.000,373.157 328.000 C 373.494 328.000,374.145 326.787,373.909 326.598 C 373.849 326.549,373.575 326.590,373.300 326.688 M375.056 331.878 C 374.578 332.356,374.798 333.200,375.400 333.200 C 375.730 333.200,376.000 332.941,376.000 332.624 C 376.000 331.955,375.429 331.504,375.056 331.878 M25.825 335.109 C 25.457 335.477,25.569 336.000,26.017 336.000 C 26.246 336.000,26.826 336.366,27.305 336.812 C 28.181 337.628,29.337 337.747,29.133 337.000 C 29.073 336.780,28.821 336.646,28.574 336.703 C 28.326 336.760,27.657 336.374,27.087 335.845 C 26.516 335.317,25.948 334.985,25.825 335.109 M32.400 337.200 C 32.400 337.420,32.670 337.600,33.000 337.600 C 33.330 337.600,33.600 337.420,33.600 337.200 C 33.600 336.980,33.330 336.800,33.000 336.800 C 32.670 336.800,32.400 336.980,32.400 337.200 M371.000 337.200 C 371.136 337.420,371.507 337.600,371.824 337.600 C 372.141 337.600,372.400 337.420,372.400 337.200 C 372.400 336.980,372.029 336.800,371.576 336.800 C 371.123 336.800,370.864 336.980,371.000 337.200 " stroke="none" fill="#fbca45" fill-rule="evenodd"></path><path id="path2" d="M219.133 23.994 C 219.060 24.210,218.137 24.420,217.083 24.459 C 216.029 24.499,215.073 24.682,214.960 24.865 C 214.846 25.049,214.358 25.202,213.876 25.205 C 213.394 25.208,211.470 25.746,209.600 26.400 C 207.730 27.054,205.900 27.592,205.533 27.595 C 205.167 27.598,204.807 27.735,204.733 27.900 C 204.660 28.065,202.260 29.354,199.400 30.765 C 194.684 33.092,190.604 35.589,186.200 38.845 C 185.320 39.495,183.880 40.492,183.000 41.059 C 180.741 42.517,171.471 51.966,168.441 55.900 C 167.044 57.715,165.743 59.200,165.550 59.200 C 165.358 59.200,165.200 59.526,165.200 59.925 C 165.200 60.323,164.881 60.998,164.492 61.425 C 163.366 62.658,159.945 68.614,157.613 73.400 C 156.434 75.820,155.319 77.860,155.135 77.933 C 154.951 78.007,154.800 78.496,154.800 79.021 C 154.800 79.546,154.440 80.617,154.000 81.400 C 153.560 82.183,153.200 83.065,153.200 83.359 C 153.200 83.653,152.860 84.772,152.444 85.847 C 152.028 86.921,151.456 88.610,151.172 89.600 C 150.888 90.590,150.540 91.580,150.399 91.800 C 150.257 92.020,150.104 92.818,150.059 93.573 C 150.013 94.329,149.783 95.179,149.547 95.463 C 149.224 95.853,149.349 96.071,150.059 96.351 C 153.983 97.898,155.353 98.400,155.658 98.400 C 155.851 98.400,156.772 98.738,157.704 99.152 C 160.275 100.292,166.776 102.207,172.800 103.598 C 181.545 105.617,180.334 105.377,190.800 107.161 C 197.049 108.226,214.789 110.126,228.800 111.230 C 236.494 111.836,259.217 112.140,260.400 111.653 L 261.400 111.241 260.487 110.970 C 259.636 110.718,259.614 110.638,260.172 109.787 C 260.645 109.065,260.666 108.787,260.273 108.461 C 259.999 108.234,259.530 106.912,259.230 105.524 C 258.930 104.136,258.512 102.662,258.301 102.249 C 258.033 101.724,258.068 101.405,258.420 101.188 C 258.807 100.948,258.728 100.485,258.074 99.164 C 257.401 97.803,257.324 97.322,257.700 96.825 C 257.960 96.481,258.015 96.335,257.821 96.499 C 257.627 96.664,257.142 95.873,256.743 94.741 C 256.345 93.609,255.776 92.395,255.480 92.042 C 255.184 91.689,254.704 90.590,254.413 89.600 C 253.857 87.711,250.379 80.514,249.193 78.800 C 248.265 77.458,246.000 72.927,246.000 72.411 C 246.000 72.185,246.540 72.000,247.200 72.000 C 247.860 72.000,248.401 72.135,248.403 72.300 C 248.405 72.465,249.380 73.230,250.571 74.000 C 251.761 74.770,252.816 75.689,252.915 76.043 C 253.014 76.397,254.129 77.207,255.392 77.843 C 256.655 78.479,258.128 79.405,258.665 79.900 C 259.986 81.118,260.529 81.039,262.121 79.400 C 263.270 78.217,264.400 77.597,264.400 78.149 C 264.400 78.232,263.680 79.087,262.800 80.049 C 261.920 81.012,261.200 81.924,261.200 82.076 C 261.200 82.228,262.145 81.351,263.300 80.127 C 265.980 77.288,268.850 75.452,271.617 74.809 C 275.309 73.950,276.005 73.609,275.599 72.860 C 275.402 72.497,274.690 71.030,274.017 69.600 C 265.132 50.717,252.038 35.834,237.815 28.453 C 236.063 27.544,234.398 26.800,234.115 26.800 C 233.832 26.800,233.600 26.640,233.600 26.445 C 233.600 26.250,233.105 25.991,232.500 25.870 C 231.895 25.749,230.590 25.450,229.600 25.207 C 228.610 24.963,226.990 24.661,226.000 24.535 C 225.010 24.409,224.072 24.103,223.917 23.856 C 223.711 23.529,223.498 23.542,223.137 23.903 C 222.541 24.499,220.946 24.560,220.600 24.000 C 220.282 23.486,219.307 23.482,219.133 23.994 M223.000 51.200 C 223.632 51.860,224.365 52.400,224.628 52.400 C 224.891 52.400,225.201 52.760,225.316 53.200 C 225.431 53.640,225.812 54.000,226.163 54.000 C 226.533 54.000,226.800 54.335,226.800 54.800 C 226.800 56.672,224.021 55.849,221.400 53.200 C 219.428 51.207,219.172 50.800,219.889 50.800 C 220.364 50.800,220.864 50.620,221.000 50.400 C 221.392 49.766,221.771 49.918,223.000 51.200 M230.174 56.390 C 231.312 56.823,231.516 57.504,230.611 57.851 C 229.992 58.089,227.600 57.200,227.600 56.732 C 227.600 56.582,227.915 56.376,228.300 56.276 C 228.685 56.175,229.033 56.072,229.074 56.046 C 229.115 56.021,229.610 56.176,230.174 56.390 M197.105 107.475 C 196.722 107.575,196.002 107.579,195.505 107.483 C 195.007 107.387,195.320 107.305,196.200 107.301 C 197.080 107.296,197.487 107.375,197.105 107.475 M228.700 110.687 C 228.095 110.778,227.105 110.778,226.500 110.687 C 225.895 110.595,226.390 110.520,227.600 110.520 C 228.810 110.520,229.305 110.595,228.700 110.687 M242.900 111.489 C 242.185 111.578,241.015 111.578,240.300 111.489 C 239.585 111.401,240.170 111.328,241.600 111.328 C 243.030 111.328,243.615 111.401,242.900 111.489 " stroke="none" fill="#c31216" fill-rule="evenodd"></path><path id="path3" d="M66.000 58.400 C 66.000 58.620,65.280 58.800,64.400 58.800 C 63.520 58.800,62.800 58.980,62.800 59.200 C 62.800 59.420,62.260 59.600,61.600 59.600 C 60.940 59.600,60.400 59.780,60.400 60.000 C 60.400 60.220,60.158 60.400,59.863 60.400 C 58.860 60.400,53.200 66.350,53.200 67.405 C 53.200 67.732,53.020 68.000,52.800 68.000 C 52.580 68.000,52.400 68.360,52.400 68.800 C 52.400 69.240,52.220 69.600,52.000 69.600 C 51.780 69.600,51.600 70.039,51.600 70.576 C 51.600 71.113,51.420 71.664,51.200 71.800 C 50.980 71.936,50.800 72.767,50.800 73.647 C 50.800 74.612,50.641 75.149,50.400 75.000 C 50.180 74.864,50.000 75.145,50.000 75.625 C 50.000 76.356,50.098 76.417,50.600 76.000 C 50.942 75.716,51.200 74.844,51.200 73.975 C 51.200 73.135,51.380 72.336,51.600 72.200 C 51.820 72.064,52.000 71.620,52.000 71.214 C 52.000 70.416,53.609 67.085,54.100 66.867 C 54.265 66.793,54.400 66.568,54.400 66.367 C 54.400 65.150,60.825 60.000,62.343 60.000 C 62.726 60.000,63.245 59.795,63.495 59.545 C 64.185 58.855,71.438 58.883,73.600 59.584 C 75.336 60.147,79.590 62.271,80.000 62.780 C 80.110 62.916,80.740 63.438,81.400 63.939 C 83.353 65.423,91.200 73.299,91.200 73.776 C 91.200 74.017,91.673 74.502,92.252 74.853 C 93.640 75.695,108.000 90.047,108.000 90.592 C 108.000 90.825,108.441 91.283,108.981 91.610 C 110.410 92.477,124.299 106.306,125.096 107.655 C 125.468 108.285,125.959 108.801,126.186 108.802 C 126.723 108.804,128.875 110.828,130.230 112.604 C 131.081 113.719,132.400 114.494,132.400 113.878 C 132.400 113.492,127.065 108.400,126.660 108.400 C 126.392 108.400,125.877 107.905,125.517 107.300 C 124.855 106.190,111.843 93.039,109.606 91.219 C 108.943 90.679,108.400 90.016,108.400 89.746 C 108.400 89.475,108.040 89.140,107.600 89.000 C 107.160 88.860,106.800 88.607,106.800 88.437 C 106.800 88.046,93.933 75.150,92.967 74.573 C 92.575 74.339,92.061 73.831,91.827 73.446 C 91.190 72.400,81.539 62.800,81.124 62.800 C 80.928 62.800,80.380 62.440,79.908 62.000 C 79.436 61.560,78.723 61.200,78.325 61.200 C 77.926 61.200,77.600 61.020,77.600 60.800 C 77.600 60.580,77.330 60.400,77.000 60.400 C 76.670 60.400,76.400 60.220,76.400 60.000 C 76.400 59.780,75.860 59.600,75.200 59.600 C 74.540 59.600,74.000 59.420,74.000 59.200 C 74.000 58.980,73.460 58.800,72.800 58.800 C 72.140 58.800,71.600 58.620,71.600 58.400 C 71.600 58.171,70.400 58.000,68.800 58.000 C 67.200 58.000,66.000 58.171,66.000 58.400 M329.400 58.400 C 329.551 58.644,328.937 58.800,327.824 58.800 C 326.821 58.800,326.000 58.980,326.000 59.200 C 326.000 59.420,325.640 59.600,325.200 59.600 C 324.760 59.600,324.400 59.780,324.400 60.000 C 324.400 60.220,324.040 60.400,323.600 60.400 C 323.160 60.400,322.800 60.580,322.800 60.800 C 322.800 61.020,322.530 61.200,322.200 61.200 C 321.870 61.200,321.600 61.380,321.600 61.600 C 321.600 61.820,321.330 62.000,321.000 62.000 C 320.670 62.000,320.400 62.180,320.400 62.400 C 320.400 62.620,320.130 62.800,319.800 62.800 C 319.470 62.800,319.200 62.980,319.200 63.200 C 319.200 63.420,319.026 63.600,318.814 63.600 C 318.602 63.600,316.084 65.985,313.218 68.900 C 310.352 71.815,307.703 74.470,307.331 74.800 C 306.958 75.130,304.411 77.683,301.671 80.472 C 296.397 85.841,296.432 85.824,295.219 83.474 C 294.899 82.855,294.134 81.821,293.519 81.178 C 292.903 80.534,292.400 79.850,292.400 79.658 C 292.400 79.213,290.334 77.132,290.113 77.354 C 290.022 77.445,290.325 77.943,290.786 78.460 C 292.744 80.654,294.400 82.715,294.400 82.957 C 294.400 83.100,294.868 83.925,295.441 84.790 L 296.481 86.362 308.012 74.781 C 314.354 68.411,319.826 63.200,320.172 63.200 C 320.517 63.200,320.800 63.039,320.800 62.842 C 320.800 60.551,333.761 57.894,337.295 59.460 C 340.939 61.075,342.245 61.963,343.930 63.972 C 344.959 65.197,345.890 66.290,346.001 66.400 C 346.111 66.510,346.456 67.095,346.768 67.700 C 347.080 68.305,347.485 68.800,347.668 68.800 C 347.850 68.800,348.000 69.149,348.000 69.576 C 348.000 70.003,348.180 70.464,348.400 70.600 C 348.620 70.736,348.800 71.467,348.800 72.224 C 348.800 72.981,348.980 73.600,349.200 73.600 C 349.465 73.600,349.600 104.257,349.600 164.771 L 349.600 255.942 348.546 256.771 C 347.966 257.227,347.244 257.600,346.941 257.600 C 346.637 257.600,346.077 257.774,345.695 257.988 C 345.313 258.201,343.650 259.009,342.000 259.784 C 340.350 260.559,338.550 261.455,338.000 261.776 C 337.450 262.097,334.210 263.712,330.800 265.366 C 327.390 267.020,324.150 268.627,323.600 268.937 C 323.050 269.248,320.710 270.409,318.400 271.519 C 311.073 275.039,309.467 279.233,313.721 283.743 C 316.876 287.089,318.676 286.798,330.098 281.090 C 335.040 278.621,340.235 276.095,341.642 275.478 C 343.049 274.861,345.222 273.826,346.472 273.178 C 347.721 272.530,348.936 272.000,349.172 272.000 C 349.471 272.000,349.600 278.284,349.600 292.800 C 349.600 306.670,349.464 313.600,349.192 313.600 C 348.968 313.600,348.109 313.195,347.284 312.700 C 345.774 311.794,342.907 310.347,332.600 305.286 C 329.520 303.774,325.677 301.844,324.060 300.998 C 317.363 297.493,311.995 299.925,312.003 306.460 C 312.007 309.722,313.449 311.475,317.605 313.268 C 318.794 313.780,321.034 314.870,322.583 315.688 C 329.885 319.547,347.594 328.000,348.375 328.000 C 348.609 328.000,348.800 328.720,348.800 329.600 C 348.800 330.480,348.620 331.200,348.400 331.200 C 348.180 331.200,348.001 331.785,348.002 332.500 L 348.005 333.800 348.602 332.654 C 348.931 332.024,349.200 330.905,349.200 330.167 C 349.200 328.680,349.634 328.662,351.662 330.065 C 352.246 330.469,353.011 330.800,353.362 330.800 C 353.713 330.800,354.000 330.936,354.000 331.102 C 354.000 331.269,354.585 331.644,355.300 331.936 C 357.576 332.866,358.400 333.326,358.400 333.668 C 358.400 333.850,358.670 334.000,359.000 334.000 C 359.330 334.000,359.600 334.180,359.600 334.400 C 359.600 334.620,359.834 334.800,360.120 334.800 C 360.856 334.800,362.793 335.741,362.797 336.100 C 362.799 336.265,363.160 336.400,363.600 336.400 C 364.040 336.400,364.400 336.580,364.400 336.800 C 364.400 337.020,364.760 337.200,365.200 337.200 C 365.640 337.200,366.000 337.380,366.000 337.600 C 366.000 337.820,366.630 338.000,367.400 338.000 C 368.170 338.000,368.800 338.180,368.800 338.400 C 368.800 338.620,369.160 338.800,369.600 338.800 C 370.040 338.800,370.400 338.620,370.400 338.400 C 370.400 338.180,371.030 338.000,371.800 338.000 C 372.570 338.000,373.200 337.820,373.200 337.600 C 373.200 337.380,373.538 337.200,373.950 337.200 C 374.456 337.200,374.775 336.826,374.930 336.048 C 375.057 335.415,375.440 334.618,375.780 334.277 C 376.495 333.562,376.669 328.613,375.994 328.196 C 375.771 328.058,375.330 327.328,375.014 326.573 C 374.625 325.642,374.177 325.200,373.620 325.200 C 373.169 325.200,372.800 325.012,372.800 324.782 C 372.800 324.553,372.564 324.418,372.275 324.482 C 371.778 324.594,368.026 322.892,367.600 322.362 C 367.490 322.225,366.725 321.871,365.900 321.576 C 365.075 321.281,364.400 320.895,364.400 320.720 C 364.400 320.544,364.155 320.400,363.856 320.400 C 363.089 320.400,358.400 317.936,358.400 317.533 C 358.400 317.350,358.128 317.200,357.795 317.200 C 357.462 317.200,356.832 317.020,356.395 316.800 C 355.958 316.580,355.240 316.220,354.800 316.000 C 353.301 315.250,352.200 314.600,352.000 314.346 C 351.890 314.207,351.440 314.024,351.000 313.941 C 349.911 313.734,349.509 271.600,350.596 271.600 C 350.928 271.600,351.200 271.420,351.200 271.200 C 351.200 270.980,351.560 270.800,352.000 270.800 C 352.440 270.800,352.800 270.620,352.800 270.400 C 352.800 270.180,353.250 270.000,353.800 270.000 C 354.350 270.000,354.800 269.820,354.800 269.600 C 354.800 269.380,355.160 269.200,355.600 269.200 C 356.040 269.200,356.400 269.020,356.400 268.800 C 356.400 268.580,356.670 268.400,357.000 268.400 C 357.330 268.400,357.600 268.220,357.600 268.000 C 357.600 267.780,357.870 267.600,358.200 267.600 C 358.530 267.600,358.800 267.420,358.800 267.200 C 358.800 266.980,359.250 266.800,359.800 266.800 C 360.350 266.800,360.800 266.620,360.800 266.400 C 360.800 266.180,361.145 266.000,361.567 266.000 C 361.988 266.000,362.393 265.865,362.467 265.700 C 362.659 265.268,365.972 263.600,366.638 263.600 C 366.947 263.600,367.200 263.420,367.200 263.200 C 367.200 262.980,367.549 262.800,367.976 262.800 C 368.403 262.800,368.864 262.620,369.000 262.400 C 369.136 262.180,369.597 262.000,370.024 262.000 C 370.451 262.000,370.800 261.820,370.800 261.600 C 370.800 261.380,371.160 261.200,371.600 261.200 C 372.040 261.200,372.400 261.020,372.400 260.800 C 372.400 260.580,372.594 260.400,372.831 260.400 C 373.659 260.400,376.306 257.224,376.568 255.917 C 376.992 253.807,376.697 251.275,375.972 250.796 C 375.803 250.684,375.605 250.332,375.532 250.014 C 375.334 249.148,373.723 247.600,373.018 247.600 C 372.678 247.600,372.400 247.420,372.400 247.200 C 372.400 246.736,367.335 246.645,367.133 247.105 C 367.060 247.273,365.020 248.393,362.600 249.594 C 360.180 250.796,358.110 251.873,358.000 251.989 C 357.613 252.397,356.006 253.200,355.577 253.200 C 355.338 253.200,354.873 253.470,354.543 253.799 C 354.214 254.129,353.463 254.519,352.876 254.667 C 352.289 254.814,351.567 255.176,351.272 255.471 C 350.977 255.766,350.570 255.905,350.368 255.780 C 350.146 255.643,350.000 219.321,350.000 164.176 C 350.000 103.525,349.865 72.800,349.600 72.800 C 349.380 72.800,349.200 72.260,349.200 71.600 C 349.200 70.940,349.020 70.400,348.800 70.400 C 348.580 70.400,348.400 69.950,348.400 69.400 C 348.400 68.850,348.220 68.400,348.000 68.400 C 347.780 68.400,347.600 68.130,347.600 67.800 C 347.600 67.470,347.420 67.200,347.200 67.200 C 346.980 67.200,346.800 67.022,346.800 66.805 C 346.800 66.385,346.327 65.768,343.852 62.957 C 343.001 61.991,342.096 61.200,341.841 61.200 C 341.585 61.200,341.117 60.840,340.800 60.400 C 340.461 59.930,339.765 59.600,339.112 59.600 C 338.500 59.600,338.000 59.420,338.000 59.200 C 338.000 58.980,337.190 58.800,336.200 58.800 C 335.210 58.800,334.400 58.620,334.400 58.400 C 334.400 58.174,333.259 58.000,331.776 58.000 C 330.129 58.000,329.245 58.149,329.400 58.400 M276.080 73.595 C 273.829 74.128,274.281 74.244,278.512 74.222 C 280.760 74.210,282.015 74.144,281.300 74.075 C 280.585 74.006,280.000 73.781,280.000 73.575 C 280.000 73.137,277.970 73.147,276.080 73.595 M283.420 74.363 C 284.009 74.925,286.800 75.590,286.800 75.168 C 286.800 74.965,286.350 74.800,285.800 74.800 C 285.250 74.800,284.800 74.620,284.800 74.400 C 284.800 74.180,284.404 74.000,283.920 74.000 C 283.381 74.000,283.187 74.141,283.420 74.363 M271.400 74.800 L 270.600 75.144 271.400 75.132 C 271.840 75.126,272.650 74.976,273.200 74.800 L 274.200 74.480 273.200 74.468 C 272.650 74.462,271.840 74.611,271.400 74.800 M267.400 76.580 C 264.680 78.377,259.260 84.215,259.825 84.737 C 259.982 84.882,260.195 84.761,260.299 84.468 C 260.974 82.570,265.059 78.506,268.176 76.630 C 269.484 75.843,270.294 75.213,269.976 75.229 C 269.659 75.245,268.500 75.853,267.400 76.580 M67.042 80.011 C 65.316 80.534,63.700 82.292,62.996 84.412 C 61.991 87.438,62.277 165.209,63.300 167.079 C 65.012 170.210,70.078 171.604,72.800 169.693 C 73.804 168.988,107.500 135.390,109.000 133.598 C 109.440 133.072,110.648 131.659,111.685 130.456 C 116.399 124.989,115.367 122.773,102.066 109.800 C 98.457 106.280,94.580 102.418,93.452 101.217 C 89.920 97.459,73.440 81.202,72.600 80.646 C 71.516 79.930,68.461 79.581,67.042 80.011 M328.800 80.128 C 327.491 80.618,297.399 110.187,290.460 117.800 C 284.000 124.890,284.569 127.005,295.935 138.147 C 301.218 143.327,306.230 148.353,317.524 159.797 C 328.202 170.618,327.922 170.394,330.806 170.397 C 333.453 170.401,335.429 169.463,336.700 167.600 L 337.600 166.282 337.600 125.321 C 337.600 80.193,337.763 83.073,335.100 81.056 C 333.485 79.832,330.689 79.420,328.800 80.128 M50.165 88.800 C 50.165 92.650,50.225 94.225,50.298 92.300 C 50.371 90.375,50.371 87.225,50.298 85.300 C 50.225 83.375,50.165 84.950,50.165 88.800 M257.228 93.300 C 257.277 96.228,257.940 96.942,257.972 94.100 C 257.988 92.681,257.827 91.600,257.600 91.600 C 257.380 91.600,257.213 92.365,257.228 93.300 M142.800 96.000 C 142.800 96.220,143.149 96.400,143.576 96.400 C 144.003 96.400,144.464 96.220,144.600 96.000 C 144.740 95.773,144.404 95.600,143.824 95.600 C 143.261 95.600,142.800 95.780,142.800 96.000 M148.576 96.213 C 149.004 96.536,149.623 96.800,149.953 96.800 C 150.406 96.800,150.363 96.656,149.776 96.213 C 149.349 95.890,148.730 95.625,148.400 95.625 C 147.947 95.625,147.990 95.769,148.576 96.213 M140.241 97.631 C 139.604 98.274,138.870 98.800,138.609 98.800 C 138.348 98.800,137.881 99.295,137.570 99.900 C 137.260 100.505,136.660 101.316,136.239 101.703 C 135.817 102.089,135.568 102.502,135.686 102.619 C 135.804 102.737,136.375 102.241,136.954 101.517 C 137.534 100.793,138.141 100.077,138.304 99.927 C 138.467 99.776,139.410 98.926,140.400 98.037 C 141.390 97.148,142.020 96.430,141.800 96.441 C 141.580 96.453,140.879 96.988,140.241 97.631 M151.200 97.200 C 151.530 97.413,152.070 97.588,152.400 97.588 C 152.933 97.588,152.933 97.545,152.400 97.200 C 152.070 96.987,151.530 96.812,151.200 96.812 C 150.667 96.812,150.667 96.855,151.200 97.200 M153.400 97.888 C 153.620 98.111,154.610 98.569,155.600 98.905 C 156.590 99.240,157.760 99.651,158.200 99.817 C 158.753 100.025,158.876 99.988,158.600 99.698 C 158.380 99.467,157.390 99.005,156.400 98.671 C 155.410 98.338,154.240 97.934,153.800 97.773 C 153.261 97.577,153.130 97.615,153.400 97.888 M258.629 100.400 C 258.776 100.950,259.064 101.670,259.267 102.000 C 259.525 102.417,259.557 102.295,259.371 101.600 C 259.224 101.050,258.936 100.330,258.733 100.000 C 258.475 99.583,258.443 99.705,258.629 100.400 M159.600 100.400 C 159.930 100.613,160.560 100.788,161.000 100.788 C 161.662 100.788,161.697 100.721,161.200 100.400 C 160.870 100.187,160.240 100.012,159.800 100.012 C 159.138 100.012,159.103 100.079,159.600 100.400 M162.400 101.200 C 162.730 101.413,163.270 101.588,163.600 101.588 C 164.133 101.588,164.133 101.545,163.600 101.200 C 163.270 100.987,162.730 100.812,162.400 100.812 C 161.867 100.812,161.867 100.855,162.400 101.200 M164.800 102.000 C 165.130 102.213,165.760 102.378,166.200 102.366 L 167.000 102.344 166.200 102.000 C 165.004 101.486,164.005 101.486,164.800 102.000 M167.600 102.800 C 167.930 103.013,168.650 103.178,169.200 103.166 C 170.116 103.146,170.133 103.115,169.400 102.800 C 168.216 102.291,166.813 102.291,167.600 102.800 M134.800 104.000 C 134.800 104.440,134.620 104.800,134.400 104.800 C 134.180 104.800,134.000 105.250,134.000 105.800 C 134.000 106.350,133.820 106.800,133.600 106.800 C 133.380 106.800,133.200 107.002,133.200 107.249 C 133.200 107.559,133.385 107.544,133.800 107.200 C 134.130 106.926,134.400 106.375,134.400 105.975 C 134.400 105.575,134.558 105.149,134.752 105.030 C 135.255 104.719,135.596 103.200,135.163 103.200 C 134.963 103.200,134.800 103.560,134.800 104.000 M170.400 103.352 C 170.400 103.647,179.586 105.671,180.090 105.488 C 180.370 105.386,179.880 105.171,179.000 105.011 C 178.120 104.850,176.020 104.377,174.333 103.960 C 171.267 103.200,170.400 103.066,170.400 103.352 M180.843 105.776 C 181.162 106.095,188.766 107.278,189.288 107.090 C 189.570 106.988,188.900 106.782,187.800 106.633 C 186.700 106.483,185.045 106.189,184.123 105.980 C 182.380 105.585,180.537 105.470,180.843 105.776 M261.213 105.929 C 261.206 106.219,261.470 106.727,261.800 107.057 C 262.571 107.828,262.580 107.191,261.813 106.176 C 261.444 105.689,261.221 105.597,261.213 105.929 M190.800 107.600 C 191.350 107.776,192.340 107.917,193.000 107.913 L 194.200 107.905 193.000 107.600 C 192.340 107.432,191.350 107.291,190.800 107.287 L 189.800 107.280 190.800 107.600 M262.800 107.980 C 262.800 108.211,263.070 108.400,263.400 108.400 C 263.730 108.400,264.000 108.577,264.000 108.794 C 264.000 109.256,267.128 111.405,267.402 111.131 C 267.504 111.029,266.736 110.328,265.694 109.573 C 262.992 107.615,262.800 107.509,262.800 107.980 M133.200 108.533 C 133.200 108.900,133.020 109.200,132.800 109.200 C 132.580 109.200,132.400 109.380,132.400 109.600 C 132.400 109.820,132.568 110.000,132.773 110.000 C 133.223 110.000,133.770 108.437,133.437 108.103 C 133.306 107.973,133.200 108.167,133.200 108.533 M197.000 108.418 C 198.100 108.590,199.810 108.722,200.800 108.712 L 202.600 108.693 200.600 108.382 C 199.500 108.210,197.790 108.078,196.800 108.088 L 195.000 108.107 197.000 108.418 M204.600 109.223 C 205.480 109.405,206.740 109.543,207.400 109.530 L 208.600 109.505 207.400 109.200 C 206.740 109.032,205.480 108.894,204.600 108.893 L 203.000 108.892 204.600 109.223 M211.200 110.017 C 212.410 110.184,214.030 110.318,214.800 110.314 L 216.200 110.308 214.600 109.977 C 213.720 109.795,212.100 109.661,211.000 109.679 L 209.000 109.713 211.200 110.017 M219.400 110.818 C 220.500 110.990,222.210 111.125,223.200 111.119 L 225.000 111.108 223.400 110.777 C 222.520 110.595,220.810 110.460,219.600 110.476 L 217.400 110.507 219.400 110.818 M261.000 111.451 L 259.800 112.036 261.365 111.833 C 262.226 111.721,263.117 111.443,263.345 111.215 C 263.966 110.594,262.440 110.748,261.000 111.451 M265.200 111.114 C 265.200 111.649,266.191 112.000,267.699 112.000 C 269.060 112.000,268.852 111.426,267.467 111.356 C 266.990 111.332,266.285 111.178,265.900 111.013 C 265.501 110.843,265.200 110.886,265.200 111.114 M228.600 111.615 C 229.920 111.779,232.350 111.906,234.000 111.898 L 237.000 111.882 234.600 111.585 C 233.280 111.421,230.850 111.294,229.200 111.302 L 226.200 111.318 228.600 111.615 M243.900 112.299 C 246.595 112.368,251.005 112.368,253.700 112.299 C 256.395 112.230,254.190 112.173,248.800 112.173 C 243.410 112.173,241.205 112.230,243.900 112.299 M141.200 208.962 C 119.681 213.808,122.318 248.645,144.200 248.591 C 165.441 248.539,167.842 213.424,146.908 208.988 C 143.765 208.322,144.040 208.323,141.200 208.962 M251.200 209.532 C 245.047 211.820,242.142 215.147,239.642 222.766 C 238.289 226.890,238.735 234.947,240.464 237.600 C 240.893 238.258,240.808 237.820,239.782 234.080 C 238.819 230.574,239.270 222.997,240.514 221.753 C 240.671 221.595,240.800 221.232,240.800 220.945 C 240.800 219.560,243.091 215.631,244.911 213.895 C 259.876 199.617,281.526 220.697,270.901 239.200 C 267.144 245.743,257.410 250.007,251.664 247.626 C 250.955 247.333,250.272 247.194,250.148 247.319 C 250.023 247.444,250.872 247.828,252.033 248.173 C 264.924 252.001,277.936 236.207,273.298 222.361 C 269.975 212.443,259.587 206.412,251.200 209.532 M150.855 210.731 C 155.047 212.731,157.118 215.129,159.381 220.600 C 165.620 235.687,153.270 252.280,139.400 247.445 C 129.714 244.068,124.162 232.777,127.381 223.000 C 131.085 211.751,141.541 206.286,150.855 210.731 M241.399 239.864 C 242.384 242.229,248.646 247.888,249.420 247.113 C 249.541 246.992,248.776 246.349,247.720 245.684 C 245.064 244.011,242.659 241.649,242.027 240.091 C 241.735 239.372,241.330 238.680,241.127 238.555 C 240.925 238.430,241.047 239.019,241.399 239.864 M28.000 247.200 C 28.000 247.420,27.668 247.600,27.262 247.600 C 26.330 247.600,25.339 248.683,24.766 250.326 C 24.522 251.027,24.159 251.600,23.961 251.600 C 23.401 251.600,23.525 256.778,24.100 257.387 C 24.375 257.678,25.048 258.475,25.596 259.158 C 26.143 259.841,26.908 260.400,27.296 260.400 C 27.683 260.400,28.000 260.580,28.000 260.800 C 28.000 261.020,28.265 261.200,28.588 261.200 C 28.911 261.200,29.817 261.560,30.600 262.000 C 31.383 262.440,32.289 262.800,32.612 262.800 C 32.935 262.800,33.200 262.980,33.200 263.200 C 33.200 263.420,33.560 263.600,34.000 263.600 C 34.440 263.600,34.800 263.780,34.800 264.000 C 34.800 264.220,35.160 264.400,35.600 264.400 C 36.040 264.400,36.400 264.580,36.400 264.800 C 36.400 265.020,36.760 265.200,37.200 265.200 C 37.640 265.200,38.000 265.380,38.000 265.600 C 38.000 265.820,38.272 266.000,38.605 266.000 C 39.377 266.000,40.804 266.799,41.643 267.700 C 42.001 268.085,42.768 268.400,43.347 268.400 C 43.926 268.400,44.400 268.580,44.400 268.800 C 44.400 269.020,44.760 269.200,45.200 269.200 C 45.640 269.200,46.000 269.380,46.000 269.600 C 46.000 269.820,46.360 270.000,46.800 270.000 C 47.240 270.000,47.600 270.180,47.600 270.400 C 47.600 270.620,47.958 270.800,48.397 270.800 C 48.835 270.800,49.400 271.130,49.652 271.534 C 49.940 271.995,50.435 272.206,50.984 272.101 C 51.465 272.009,52.495 272.292,53.274 272.729 C 55.561 274.014,56.075 274.274,58.600 275.422 C 63.086 277.462,73.393 282.548,75.278 283.653 C 81.455 287.272,86.886 286.007,88.401 280.596 C 89.540 276.528,88.034 274.515,81.454 271.309 C 79.444 270.330,76.990 269.097,76.000 268.570 C 72.477 266.695,55.296 258.346,52.695 257.246 C 51.556 256.765,50.657 256.084,50.462 255.556 C 50.166 254.755,50.109 254.740,49.859 255.390 C 49.608 256.044,49.521 256.053,48.892 255.486 C 48.511 255.143,47.703 254.738,47.096 254.587 C 46.489 254.435,45.887 254.140,45.757 253.931 C 45.490 253.498,43.559 252.636,43.089 252.739 C 42.918 252.777,42.673 252.536,42.546 252.204 C 42.419 251.872,42.064 251.600,41.757 251.600 C 41.451 251.600,41.200 251.420,41.200 251.200 C 41.200 250.980,40.840 250.800,40.400 250.800 C 39.960 250.800,39.600 250.620,39.600 250.400 C 39.600 250.180,39.366 250.000,39.080 250.000 C 38.344 250.000,36.407 249.059,36.403 248.700 C 36.401 248.535,36.040 248.400,35.600 248.400 C 35.160 248.400,34.800 248.220,34.800 248.000 C 34.800 247.780,34.440 247.600,34.000 247.600 C 33.560 247.600,33.200 247.420,33.200 247.200 C 33.200 246.974,32.067 246.800,30.600 246.800 C 29.133 246.800,28.000 246.974,28.000 247.200 M31.600 247.600 C 31.600 247.820,31.345 248.000,31.033 248.000 C 30.721 248.000,30.181 248.109,29.833 248.243 C 29.418 248.402,29.200 248.265,29.200 247.843 C 29.200 247.395,29.564 247.200,30.400 247.200 C 31.060 247.200,31.600 247.380,31.600 247.600 M371.345 247.800 C 371.523 248.264,371.253 248.400,370.161 248.400 C 369.384 248.400,368.410 248.580,367.998 248.801 C 367.497 249.069,367.166 249.069,367.001 248.801 C 366.864 248.580,367.123 248.400,367.576 248.400 C 368.029 248.400,368.379 248.265,368.353 248.100 C 368.236 247.360,368.486 247.200,369.757 247.200 C 370.595 247.200,371.203 247.430,371.345 247.800 M191.600 248.574 C 182.927 250.233,180.137 257.046,185.368 263.788 C 195.138 276.382,202.208 277.298,211.713 267.200 C 220.272 258.108,218.795 250.392,208.118 248.419 C 205.085 247.858,194.840 247.954,191.600 248.574 M374.400 249.400 C 374.400 249.730,374.220 250.000,374.000 250.000 C 373.780 250.000,373.600 249.730,373.600 249.400 C 373.600 249.070,373.780 248.800,374.000 248.800 C 374.220 248.800,374.400 249.070,374.400 249.400 M24.898 253.800 C 24.793 254.350,24.638 254.800,24.553 254.800 C 24.469 254.800,24.400 254.350,24.400 253.800 C 24.400 253.250,24.555 252.800,24.745 252.800 C 24.934 252.800,25.003 253.250,24.898 253.800 M28.000 259.400 C 28.000 259.730,27.730 260.000,27.400 260.000 C 26.775 260.000,26.606 259.527,27.067 259.067 C 27.527 258.606,28.000 258.775,28.000 259.400 M163.400 280.263 C 161.449 281.288,159.656 283.228,158.950 285.076 C 156.491 291.515,164.073 305.123,172.000 308.499 C 172.990 308.921,174.340 309.499,175.000 309.785 C 181.879 312.764,191.299 311.424,197.700 306.556 L 200.065 304.757 201.822 306.196 C 205.756 309.420,213.720 311.942,218.200 311.383 C 220.635 311.079,224.852 310.044,225.400 309.616 C 225.620 309.445,226.474 309.087,227.298 308.822 C 234.997 306.342,243.442 292.201,241.377 285.246 C 238.899 276.904,226.046 278.705,226.002 287.400 C 225.962 295.113,216.460 299.091,210.525 293.880 C 208.833 292.395,208.471 291.517,207.991 287.732 C 206.650 277.149,193.720 276.801,192.409 287.312 C 190.915 299.287,176.303 299.711,174.461 287.833 C 173.477 281.488,168.088 277.799,163.400 280.263 M169.051 280.638 C 172.188 281.931,173.261 283.528,174.000 288.000 C 175.987 300.025,192.800 299.519,192.800 287.434 C 192.800 281.889,199.109 278.266,203.696 281.175 C 206.205 282.766,206.798 283.817,207.494 287.906 C 208.371 293.061,209.769 294.859,214.028 296.313 C 219.629 298.224,226.400 293.704,226.400 288.053 C 226.400 282.380,232.052 278.516,236.969 280.827 C 246.458 285.288,238.747 303.901,225.200 309.237 C 220.689 311.013,212.457 311.223,209.000 309.650 C 207.900 309.149,206.280 308.414,205.400 308.017 C 204.520 307.620,202.946 306.539,201.902 305.615 L 200.003 303.935 197.905 305.770 C 193.794 309.367,186.550 311.488,181.015 310.717 C 170.593 309.265,162.900 302.709,159.611 292.478 C 157.126 284.745,162.540 277.955,169.051 280.638 M70.800 303.689 C 65.850 306.185,60.900 308.624,59.800 309.108 C 58.700 309.593,56.291 310.811,54.446 311.816 C 52.601 312.822,50.846 313.550,50.546 313.435 C 50.246 313.319,50.000 313.399,50.000 313.613 C 50.000 313.826,49.640 314.000,49.200 314.000 C 48.760 314.000,48.399 314.135,48.397 314.300 C 48.393 314.659,46.456 315.600,45.720 315.600 C 45.434 315.600,45.199 315.735,45.197 315.900 C 45.193 316.259,43.256 317.200,42.520 317.200 C 42.234 317.200,42.000 317.355,42.000 317.543 C 42.000 317.960,35.770 321.200,34.969 321.200 C 34.656 321.200,34.400 321.380,34.400 321.600 C 34.400 321.820,34.059 322.000,33.643 322.000 C 33.226 322.000,32.786 322.260,32.664 322.578 C 32.542 322.896,31.803 323.276,31.021 323.422 C 30.239 323.569,29.600 323.849,29.600 324.045 C 29.600 324.240,29.251 324.400,28.824 324.400 C 28.397 324.400,27.936 324.580,27.800 324.800 C 27.664 325.020,27.281 325.200,26.948 325.200 C 25.993 325.200,24.400 327.323,24.400 328.595 C 24.400 328.928,24.220 329.200,24.000 329.200 C 23.780 329.200,23.600 330.100,23.600 331.200 C 23.600 332.300,23.766 333.200,23.969 333.200 C 24.172 333.200,24.537 333.785,24.781 334.500 C 25.776 337.417,26.820 338.049,30.657 338.060 C 32.556 338.065,34.220 337.905,34.355 337.703 C 34.490 337.501,35.185 337.081,35.900 336.770 C 36.615 336.459,37.200 336.069,37.200 335.902 C 37.200 335.736,37.650 335.600,38.200 335.600 C 38.750 335.600,39.200 335.420,39.200 335.200 C 39.200 334.980,39.470 334.800,39.800 334.800 C 40.130 334.800,40.400 334.620,40.400 334.400 C 40.400 334.180,40.760 334.000,41.200 334.000 C 41.640 334.000,42.000 333.820,42.000 333.600 C 42.000 333.380,42.360 333.200,42.800 333.200 C 43.240 333.200,43.600 333.054,43.600 332.875 C 43.600 332.696,44.223 332.305,44.983 332.007 C 45.744 331.708,46.463 331.213,46.581 330.907 C 46.698 330.600,46.955 330.449,47.152 330.570 C 47.348 330.692,47.730 330.525,48.000 330.200 C 48.270 329.875,48.652 329.708,48.848 329.830 C 49.045 329.952,49.520 329.737,49.903 329.354 C 50.566 328.691,50.607 328.695,50.739 329.429 C 50.815 329.853,51.040 330.371,51.239 330.580 C 51.437 330.789,51.600 331.644,51.600 332.480 C 51.600 333.316,51.780 334.000,52.000 334.000 C 52.220 334.000,52.400 334.540,52.400 335.200 C 52.400 335.860,52.580 336.400,52.800 336.400 C 53.020 336.400,53.200 336.850,53.200 337.400 C 53.200 337.950,53.380 338.400,53.600 338.400 C 53.820 338.400,54.000 338.850,54.000 339.400 C 54.000 339.950,54.180 340.400,54.400 340.400 C 54.620 340.400,54.800 340.760,54.800 341.200 C 54.800 341.640,54.936 342.000,55.102 342.000 C 55.269 342.000,55.663 342.585,55.978 343.300 C 56.293 344.015,56.780 344.831,57.060 345.113 C 57.340 345.395,57.686 346.250,57.829 347.013 C 57.972 347.776,58.249 348.400,58.445 348.400 C 58.640 348.400,58.800 348.720,58.800 349.112 C 58.800 349.503,59.160 350.083,59.600 350.400 C 60.040 350.717,60.400 351.168,60.400 351.401 C 60.400 351.634,61.255 352.724,62.300 353.822 C 63.345 354.921,64.519 356.310,64.909 356.910 C 65.299 357.509,65.792 358.000,66.005 358.000 C 66.406 358.000,67.078 358.511,69.541 360.691 C 70.344 361.401,71.132 361.986,71.293 361.991 C 71.574 362.000,72.974 363.170,75.013 365.100 C 75.536 365.595,76.242 366.000,76.582 366.000 C 76.922 366.000,77.200 366.180,77.200 366.400 C 77.200 366.620,77.560 366.800,78.000 366.800 C 78.440 366.800,78.800 366.980,78.800 367.200 C 78.800 367.420,79.160 367.600,79.600 367.600 C 80.040 367.600,80.400 367.780,80.400 368.000 C 80.400 368.220,80.760 368.400,81.200 368.400 C 81.640 368.400,82.000 368.580,82.000 368.800 C 82.000 369.020,82.360 369.200,82.800 369.200 C 83.240 369.200,83.600 369.380,83.600 369.600 C 83.600 369.820,84.050 370.000,84.600 370.000 C 85.150 370.000,85.600 370.180,85.600 370.400 C 85.600 370.620,86.140 370.800,86.800 370.800 C 87.460 370.800,88.000 370.980,88.000 371.200 C 88.000 371.420,88.615 371.600,89.367 371.600 C 90.118 371.600,90.824 371.825,90.935 372.100 C 91.056 372.399,91.150 372.318,91.168 371.900 C 91.192 371.385,90.889 371.200,90.024 371.200 C 89.377 371.200,88.736 371.020,88.600 370.800 C 88.464 370.580,87.995 370.400,87.557 370.400 C 87.119 370.400,86.016 370.040,85.106 369.600 C 84.195 369.160,83.214 368.800,82.925 368.800 C 82.636 368.800,82.400 368.620,82.400 368.400 C 82.400 368.180,82.040 368.000,81.600 368.000 C 81.160 368.000,80.800 367.820,80.800 367.600 C 80.800 367.380,80.440 367.200,80.000 367.200 C 79.560 367.200,79.200 367.020,79.200 366.800 C 79.200 366.580,78.913 366.400,78.562 366.400 C 77.888 366.400,75.811 365.075,74.800 364.000 C 74.470 363.649,73.570 362.929,72.800 362.400 C 72.030 361.871,71.310 361.337,71.200 361.213 C 70.881 360.853,68.652 359.073,67.426 358.200 C 66.482 357.528,65.025 356.093,63.000 353.844 C 61.682 352.380,58.400 347.487,58.400 346.986 C 58.400 346.415,57.646 344.821,57.177 344.400 C 57.055 344.290,56.718 343.615,56.429 342.900 C 56.140 342.185,55.745 341.600,55.551 341.600 C 55.358 341.600,55.200 341.328,55.200 340.995 C 55.200 340.662,55.020 340.032,54.800 339.595 C 54.580 339.158,54.220 338.442,54.000 338.005 C 53.780 337.568,53.600 336.859,53.600 336.429 C 53.600 335.999,53.420 335.536,53.200 335.400 C 52.980 335.264,52.800 334.623,52.800 333.976 C 52.800 333.329,52.620 332.800,52.400 332.800 C 52.180 332.800,52.000 332.080,52.000 331.200 C 52.000 330.320,51.820 329.600,51.600 329.600 C 50.453 329.600,51.426 328.275,53.099 327.557 C 59.375 324.867,63.040 323.100,78.600 315.258 C 80.360 314.371,82.845 313.175,84.123 312.600 C 91.218 309.409,89.609 299.887,81.876 299.306 C 79.899 299.157,79.373 299.365,70.800 303.689 M29.600 325.800 C 29.600 326.130,29.420 326.400,29.200 326.400 C 28.980 326.400,28.800 326.130,28.800 325.800 C 28.800 325.470,28.980 325.200,29.200 325.200 C 29.420 325.200,29.600 325.470,29.600 325.800 M27.727 326.408 C 26.832 327.235,25.367 327.328,26.200 326.505 C 26.640 326.071,27.237 325.803,27.527 325.911 C 27.817 326.018,27.907 326.242,27.727 326.408 M373.767 327.343 C 373.628 327.704,373.354 328.000,373.157 328.000 C 372.611 328.000,372.732 326.891,373.300 326.688 C 373.976 326.447,374.063 326.569,373.767 327.343 M376.000 332.624 C 376.000 332.941,375.730 333.200,375.400 333.200 C 374.798 333.200,374.578 332.356,375.056 331.878 C 375.429 331.504,376.000 331.955,376.000 332.624 M347.200 335.376 C 347.200 335.913,347.020 336.464,346.800 336.600 C 346.580 336.736,346.400 337.287,346.400 337.824 C 346.400 338.361,346.220 338.800,346.000 338.800 C 345.780 338.800,345.600 339.250,345.600 339.800 C 345.600 340.350,345.420 340.800,345.200 340.800 C 344.980 340.800,344.800 341.070,344.800 341.400 C 344.800 341.730,344.665 342.001,344.500 342.001 C 344.335 342.002,343.750 342.992,343.200 344.200 C 342.650 345.408,342.065 346.398,341.900 346.399 C 341.735 346.399,341.600 346.773,341.600 347.228 C 341.600 348.020,339.787 350.984,338.352 352.538 C 337.977 352.944,336.979 354.152,336.135 355.224 C 335.291 356.296,334.253 357.291,333.829 357.436 C 333.405 357.580,332.415 358.288,331.629 359.008 C 329.802 360.681,326.482 363.199,326.097 363.204 C 325.933 363.206,325.375 363.746,324.855 364.404 C 324.335 365.062,323.570 365.600,323.155 365.600 C 322.740 365.600,322.400 365.759,322.400 365.953 C 322.400 366.148,322.085 366.407,321.700 366.529 C 321.315 366.651,320.460 367.059,319.800 367.436 C 317.886 368.529,317.251 368.800,316.605 368.800 C 316.272 368.800,316.000 368.980,316.000 369.200 C 316.000 369.420,315.651 369.600,315.224 369.600 C 314.371 369.600,313.749 370.295,314.215 370.727 C 314.377 370.877,314.590 370.775,314.688 370.500 C 314.786 370.225,315.201 370.000,315.610 370.000 C 316.018 370.000,316.464 369.820,316.600 369.600 C 316.736 369.380,317.197 369.200,317.624 369.200 C 318.051 369.200,318.400 369.020,318.400 368.800 C 318.400 368.580,318.760 368.400,319.200 368.400 C 319.640 368.400,320.000 368.220,320.000 368.000 C 320.000 367.780,320.360 367.600,320.800 367.600 C 321.240 367.600,321.600 367.420,321.600 367.200 C 321.600 366.980,321.870 366.800,322.200 366.800 C 322.530 366.800,322.800 366.620,322.800 366.400 C 322.800 366.180,323.068 366.000,323.395 366.000 C 323.985 366.000,324.909 365.353,326.550 363.791 C 327.018 363.347,328.030 362.551,328.800 362.023 C 329.570 361.496,330.716 360.555,331.347 359.932 C 331.979 359.309,332.750 358.800,333.062 358.800 C 333.694 358.800,337.200 355.353,337.200 354.732 C 337.200 354.515,337.920 353.646,338.800 352.800 C 339.680 351.954,340.400 351.018,340.400 350.720 C 340.400 350.421,340.760 349.917,341.200 349.600 C 341.640 349.283,342.000 348.613,342.000 348.112 C 342.000 347.610,342.180 347.200,342.400 347.200 C 342.620 347.200,342.800 346.840,342.800 346.400 C 342.800 345.960,342.980 345.600,343.200 345.600 C 343.420 345.600,343.600 345.240,343.600 344.800 C 343.600 344.360,343.780 344.000,344.000 344.000 C 344.220 344.000,344.400 343.640,344.400 343.200 C 344.400 342.760,344.580 342.400,344.800 342.400 C 345.020 342.400,345.200 342.130,345.200 341.800 C 345.200 341.470,345.380 341.200,345.600 341.200 C 345.820 341.200,346.000 340.750,346.000 340.200 C 346.000 339.650,346.180 339.200,346.400 339.200 C 346.620 339.200,346.800 338.750,346.800 338.200 C 346.800 337.650,346.980 337.200,347.200 337.200 C 347.420 337.200,347.600 336.750,347.600 336.200 C 347.600 335.650,347.780 335.200,348.000 335.200 C 348.220 335.200,348.400 335.020,348.400 334.800 C 348.400 334.580,348.130 334.400,347.800 334.400 C 347.431 334.400,347.200 334.775,347.200 335.376 M28.574 336.703 C 28.821 336.646,29.073 336.780,29.133 337.000 C 29.337 337.747,28.181 337.628,27.305 336.812 C 26.826 336.366,26.246 336.000,26.017 336.000 C 25.788 336.000,25.600 335.850,25.600 335.667 C 25.600 334.884,26.117 334.946,27.087 335.845 C 27.657 336.374,28.326 336.760,28.574 336.703 M33.600 337.200 C 33.600 337.420,33.330 337.600,33.000 337.600 C 32.670 337.600,32.400 337.420,32.400 337.200 C 32.400 336.980,32.670 336.800,33.000 336.800 C 33.330 336.800,33.600 336.980,33.600 337.200 M372.400 337.200 C 372.400 337.420,372.141 337.600,371.824 337.600 C 371.507 337.600,371.136 337.420,371.000 337.200 C 370.864 336.980,371.123 336.800,371.576 336.800 C 372.029 336.800,372.400 336.980,372.400 337.200 M311.800 370.800 C 311.664 371.020,311.149 371.200,310.656 371.200 C 310.163 371.200,309.589 371.351,309.380 371.536 C 308.955 371.911,305.593 372.655,302.700 373.013 C 300.726 373.258,300.049 374.000,301.800 374.000 C 302.350 374.000,302.800 373.820,302.800 373.600 C 302.800 373.378,303.867 373.200,305.200 373.200 C 306.533 373.200,307.600 373.022,307.600 372.800 C 307.600 372.580,308.140 372.400,308.800 372.400 C 309.460 372.400,310.000 372.220,310.000 372.000 C 310.000 371.780,310.540 371.600,311.200 371.600 C 311.860 371.600,312.400 371.433,312.400 371.229 C 312.400 371.025,312.715 370.776,313.100 370.676 C 313.641 370.534,313.600 370.482,312.924 370.446 C 312.442 370.421,311.936 370.580,311.800 370.800 M92.500 372.276 C 92.885 372.376,93.200 372.625,93.200 372.829 C 93.200 373.033,93.470 373.200,93.800 373.200 C 94.130 373.200,94.400 373.039,94.400 372.843 C 94.400 372.406,93.373 371.983,92.467 372.046 C 91.879 372.087,91.883 372.115,92.500 372.276 M96.500 373.091 C 97.325 373.178,98.000 373.417,98.000 373.624 C 98.000 373.831,98.450 374.000,99.000 374.000 C 99.550 374.000,100.000 373.843,100.000 373.650 C 100.000 373.214,97.912 372.778,96.250 372.867 C 95.115 372.928,95.139 372.949,96.500 373.091 M151.532 373.900 C 178.885 373.957,223.525 373.957,250.732 373.900 C 277.939 373.843,255.560 373.797,201.000 373.797 C 146.440 373.797,124.179 373.843,151.532 373.900 " stroke="none" fill="#ef9036" fill-rule="evenodd"></path><path id="path4" d="M220.600 23.200 C 220.209 23.833,220.764 24.400,221.775 24.400 C 222.749 24.400,223.780 23.513,223.330 23.063 C 222.919 22.652,220.875 22.755,220.600 23.200 M214.000 24.000 C 214.000 24.220,213.381 24.400,212.624 24.400 C 211.867 24.400,211.136 24.580,211.000 24.800 C 210.864 25.020,210.223 25.200,209.576 25.200 C 208.929 25.200,208.400 25.380,208.400 25.600 C 208.400 25.820,207.961 26.000,207.424 26.000 C 206.887 26.000,206.336 26.180,206.200 26.400 C 206.064 26.620,205.603 26.800,205.176 26.800 C 204.749 26.800,204.400 26.980,204.400 27.200 C 204.400 27.420,204.085 27.599,203.700 27.597 C 202.800 27.594,194.800 31.602,194.800 32.057 C 194.800 32.245,194.455 32.400,194.033 32.400 C 193.612 32.400,193.207 32.535,193.133 32.700 C 193.060 32.865,192.145 33.433,191.100 33.963 C 190.055 34.492,189.200 35.077,189.200 35.263 C 189.200 35.448,188.957 35.600,188.659 35.600 C 188.362 35.600,187.554 36.140,186.863 36.800 C 186.172 37.460,185.408 38.000,185.164 38.000 C 184.920 38.000,184.217 38.540,183.600 39.200 C 182.983 39.860,182.267 40.400,182.008 40.400 C 181.749 40.400,180.846 41.120,180.000 42.000 C 179.154 42.880,178.309 43.600,178.121 43.600 C 177.692 43.600,172.400 48.906,172.400 49.336 C 172.400 49.510,171.500 50.529,170.400 51.600 C 169.300 52.671,168.400 53.740,168.400 53.974 C 168.400 54.208,167.680 55.141,166.800 56.048 C 165.920 56.955,165.200 57.945,165.200 58.248 C 165.200 58.552,165.050 58.800,164.868 58.800 C 164.685 58.800,164.280 59.295,163.968 59.900 C 163.655 60.505,163.085 61.349,162.700 61.775 C 162.315 62.202,162.000 62.787,162.000 63.075 C 162.000 63.364,161.820 63.600,161.600 63.600 C 161.380 63.600,161.200 63.960,161.200 64.400 C 161.200 64.840,161.020 65.200,160.800 65.200 C 160.580 65.200,160.400 65.520,160.400 65.912 C 160.400 66.303,160.040 66.883,159.600 67.200 C 159.160 67.517,158.800 68.097,158.800 68.488 C 158.800 68.880,158.620 69.200,158.400 69.200 C 158.180 69.200,158.000 69.560,158.000 70.000 C 158.000 70.440,157.820 70.800,157.600 70.800 C 157.380 70.800,157.200 71.160,157.200 71.600 C 157.200 72.040,157.020 72.400,156.800 72.400 C 156.580 72.400,156.400 72.760,156.400 73.200 C 156.400 73.640,156.220 74.000,156.000 74.000 C 155.780 74.000,155.600 74.360,155.600 74.800 C 155.600 75.240,155.420 75.600,155.200 75.600 C 154.980 75.600,154.800 76.140,154.800 76.800 C 154.800 77.460,154.620 78.000,154.400 78.000 C 154.180 78.000,154.000 78.360,154.000 78.800 C 154.000 79.240,153.820 79.600,153.600 79.600 C 153.380 79.600,153.200 80.140,153.200 80.800 C 153.200 81.460,153.020 82.000,152.800 82.000 C 152.580 82.000,152.400 82.360,152.400 82.800 C 152.400 83.240,152.220 83.600,152.000 83.600 C 151.780 83.600,151.600 84.129,151.600 84.776 C 151.600 85.423,151.420 86.064,151.200 86.200 C 150.980 86.336,150.800 86.887,150.800 87.424 C 150.800 87.961,150.620 88.400,150.400 88.400 C 150.180 88.400,150.000 89.120,150.000 90.000 C 150.000 90.880,149.820 91.600,149.600 91.600 C 149.380 91.600,149.200 92.104,149.200 92.720 C 149.200 94.334,148.515 94.800,146.144 94.800 C 144.991 94.800,143.936 94.980,143.800 95.200 C 143.644 95.453,144.655 95.600,146.553 95.600 C 149.832 95.600,149.941 95.537,150.060 93.555 C 150.105 92.810,150.257 92.020,150.399 91.800 C 150.540 91.580,150.888 90.590,151.172 89.600 C 151.456 88.610,152.028 86.921,152.444 85.847 C 152.860 84.772,153.200 83.653,153.200 83.359 C 153.200 83.065,153.560 82.183,154.000 81.400 C 154.440 80.617,154.800 79.546,154.800 79.021 C 154.800 78.496,154.951 78.007,155.135 77.933 C 155.319 77.860,156.434 75.820,157.613 73.400 C 159.945 68.614,163.366 62.658,164.492 61.425 C 164.881 60.998,165.200 60.323,165.200 59.925 C 165.200 59.526,165.358 59.200,165.550 59.200 C 165.743 59.200,167.044 57.715,168.441 55.900 C 171.471 51.966,180.741 42.517,183.000 41.059 C 183.880 40.492,185.320 39.495,186.200 38.845 C 190.604 35.589,194.684 33.092,199.400 30.765 C 202.260 29.354,204.660 28.065,204.733 27.900 C 204.807 27.735,205.167 27.598,205.533 27.595 C 205.900 27.592,207.730 27.054,209.600 26.400 C 211.470 25.746,213.394 25.208,213.876 25.205 C 214.358 25.202,214.867 25.015,215.007 24.789 C 215.146 24.564,215.472 24.405,215.730 24.437 C 217.123 24.609,219.200 24.347,219.200 24.000 C 219.200 23.774,218.067 23.600,216.600 23.600 C 215.133 23.600,214.000 23.774,214.000 24.000 M224.000 24.000 C 224.000 24.220,224.585 24.414,225.300 24.431 C 226.015 24.447,226.870 24.534,227.200 24.623 C 228.312 24.923,231.392 25.648,232.500 25.870 C 233.105 25.991,233.600 26.250,233.600 26.445 C 233.600 26.640,233.832 26.800,234.115 26.800 C 234.398 26.800,236.063 27.544,237.815 28.453 C 250.076 34.816,261.539 46.758,270.208 62.200 C 272.163 65.683,275.200 71.785,275.200 72.231 C 275.200 73.099,276.260 73.608,277.536 73.353 C 278.674 73.125,278.974 72.300,277.870 72.437 C 276.781 72.571,276.400 72.354,276.400 71.600 C 276.400 71.160,276.220 70.800,276.000 70.800 C 275.780 70.800,275.600 70.440,275.600 70.000 C 275.600 69.560,275.420 69.200,275.200 69.200 C 274.980 69.200,274.800 68.840,274.800 68.400 C 274.800 67.960,274.620 67.600,274.400 67.600 C 274.180 67.600,274.000 67.255,274.000 66.833 C 274.000 66.412,273.865 66.007,273.700 65.933 C 273.535 65.860,272.967 64.945,272.437 63.900 C 271.908 62.855,271.323 62.000,271.137 62.000 C 270.952 62.000,270.800 61.572,270.800 61.049 C 270.800 60.526,270.527 59.871,270.193 59.594 C 269.859 59.317,269.298 58.485,268.947 57.745 C 268.596 57.005,268.149 56.400,267.954 56.400 C 267.759 56.400,267.600 56.080,267.600 55.688 C 267.600 55.297,267.240 54.717,266.800 54.400 C 266.360 54.083,266.000 53.543,266.000 53.200 C 266.000 52.857,265.640 52.317,265.200 52.000 C 264.760 51.683,264.400 51.220,264.400 50.971 C 264.400 50.722,263.860 49.954,263.200 49.263 C 262.540 48.572,262.000 47.841,262.000 47.639 C 262.000 47.436,260.920 46.173,259.600 44.832 C 258.280 43.492,257.200 42.255,257.200 42.085 C 257.200 41.697,252.680 37.200,252.290 37.200 C 252.133 37.200,251.085 36.300,249.961 35.200 C 248.838 34.100,247.747 33.200,247.538 33.200 C 247.328 33.200,246.581 32.661,245.878 32.002 C 245.175 31.343,244.403 30.803,244.162 30.802 C 243.921 30.801,243.430 30.475,243.071 30.078 C 242.711 29.681,241.783 29.107,241.009 28.803 C 240.234 28.499,239.600 28.104,239.600 27.925 C 239.600 27.746,239.335 27.600,239.012 27.600 C 238.689 27.600,237.783 27.240,237.000 26.800 C 236.217 26.360,235.221 26.000,234.788 26.000 C 234.355 26.000,234.000 25.820,234.000 25.600 C 234.000 25.380,233.651 25.200,233.224 25.200 C 232.797 25.200,232.336 25.020,232.200 24.800 C 232.064 24.580,231.344 24.400,230.600 24.400 C 229.856 24.400,229.136 24.220,229.000 24.000 C 228.864 23.780,227.683 23.600,226.376 23.600 C 225.059 23.600,224.000 23.778,224.000 24.000 M221.000 50.400 C 220.864 50.620,220.364 50.800,219.889 50.800 C 219.172 50.800,219.428 51.207,221.400 53.200 C 224.021 55.849,226.800 56.672,226.800 54.800 C 226.800 54.335,226.533 54.000,226.163 54.000 C 225.812 54.000,225.431 53.640,225.316 53.200 C 225.201 52.760,224.891 52.400,224.628 52.400 C 224.365 52.400,223.632 51.860,223.000 51.200 C 221.771 49.918,221.392 49.766,221.000 50.400 M228.300 56.276 C 227.280 56.542,227.438 56.933,228.811 57.541 C 230.067 58.097,231.200 57.936,231.200 57.203 C 231.200 56.865,229.362 55.866,229.074 56.046 C 229.033 56.072,228.685 56.175,228.300 56.276 M63.600 58.400 C 63.600 58.620,64.140 58.800,64.800 58.800 C 65.460 58.800,66.000 58.620,66.000 58.400 C 66.000 58.180,65.460 58.000,64.800 58.000 C 64.140 58.000,63.600 58.180,63.600 58.400 M71.600 58.400 C 71.600 58.620,71.960 58.800,72.400 58.800 C 72.840 58.800,73.200 58.620,73.200 58.400 C 73.200 58.180,72.840 58.000,72.400 58.000 C 71.960 58.000,71.600 58.180,71.600 58.400 M326.800 58.394 C 326.800 58.617,327.441 58.800,328.224 58.800 C 329.007 58.800,329.560 58.659,329.454 58.487 C 329.161 58.013,326.800 57.929,326.800 58.394 M334.400 58.465 C 334.400 58.649,335.030 58.800,335.800 58.800 C 336.570 58.800,337.200 58.625,337.200 58.412 C 337.200 58.199,336.570 58.048,335.800 58.077 C 335.030 58.106,334.400 58.280,334.400 58.465 M61.400 59.200 C 61.264 59.420,61.523 59.600,61.976 59.600 C 62.429 59.600,62.800 59.420,62.800 59.200 C 62.800 58.980,62.541 58.800,62.224 58.800 C 61.907 58.800,61.536 58.980,61.400 59.200 M74.000 59.200 C 74.000 59.420,74.360 59.600,74.800 59.600 C 75.240 59.600,75.600 59.420,75.600 59.200 C 75.600 58.980,75.240 58.800,74.800 58.800 C 74.360 58.800,74.000 58.980,74.000 59.200 M324.600 59.200 C 324.464 59.420,324.003 59.600,323.576 59.600 C 323.149 59.600,322.800 59.780,322.800 60.000 C 322.800 60.220,322.480 60.400,322.088 60.400 C 321.697 60.400,321.117 60.760,320.800 61.200 C 320.483 61.640,319.943 62.000,319.600 62.000 C 319.257 62.000,318.717 62.360,318.400 62.800 C 318.083 63.240,317.634 63.600,317.403 63.600 C 316.841 63.600,310.000 70.494,310.000 71.061 C 310.000 71.306,309.640 71.601,309.200 71.716 C 308.760 71.831,308.400 72.169,308.400 72.468 C 308.400 72.766,307.995 73.188,307.500 73.405 C 307.005 73.622,306.422 74.205,306.205 74.700 C 305.988 75.195,305.566 75.600,305.268 75.600 C 304.969 75.600,304.631 75.960,304.516 76.400 C 304.401 76.840,304.091 77.200,303.828 77.200 C 303.218 77.200,301.200 79.290,301.200 79.922 C 301.200 80.185,300.924 80.400,300.587 80.400 C 300.251 80.400,299.856 80.711,299.710 81.091 C 299.135 82.589,296.400 84.890,296.400 83.875 C 296.400 83.587,296.040 82.964,295.600 82.492 C 295.160 82.020,294.800 81.460,294.800 81.248 C 294.800 80.747,291.161 77.106,290.911 77.356 C 290.806 77.461,291.098 77.953,291.560 78.449 C 292.022 78.945,292.400 79.499,292.400 79.679 C 292.400 79.860,292.903 80.534,293.519 81.178 C 294.134 81.821,294.899 82.855,295.219 83.474 C 295.538 84.093,295.980 84.804,296.200 85.053 C 296.484 85.375,299.886 82.210,307.918 74.153 C 314.144 67.909,319.416 62.800,319.635 62.800 C 319.854 62.800,320.420 62.440,320.892 62.000 C 321.364 61.560,321.987 61.200,322.275 61.200 C 322.564 61.200,322.800 61.020,322.800 60.800 C 322.800 60.580,323.160 60.400,323.600 60.400 C 324.040 60.400,324.400 60.220,324.400 60.000 C 324.400 59.780,324.760 59.600,325.200 59.600 C 325.640 59.600,326.000 59.420,326.000 59.200 C 326.000 58.980,325.741 58.800,325.424 58.800 C 325.107 58.800,324.736 58.980,324.600 59.200 M338.000 59.200 C 338.000 59.420,338.371 59.600,338.824 59.600 C 339.277 59.600,339.536 59.420,339.400 59.200 C 339.264 58.980,338.893 58.800,338.576 58.800 C 338.259 58.800,338.000 58.980,338.000 59.200 M76.400 60.000 C 76.400 60.220,76.670 60.400,77.000 60.400 C 77.330 60.400,77.600 60.580,77.600 60.800 C 77.600 61.020,77.926 61.200,78.325 61.200 C 78.723 61.200,79.455 61.578,79.951 62.040 C 80.447 62.502,80.958 62.775,81.088 62.646 C 81.496 62.238,77.743 59.600,76.754 59.600 C 76.559 59.600,76.400 59.780,76.400 60.000 M340.400 59.829 C 340.400 60.199,341.510 61.200,341.920 61.200 C 342.626 61.200,347.580 67.053,347.593 67.900 C 347.597 68.175,347.780 68.400,348.000 68.400 C 348.220 68.400,348.400 68.040,348.400 67.600 C 348.400 67.160,348.220 66.800,348.000 66.800 C 347.780 66.800,347.600 66.540,347.600 66.222 C 347.600 65.470,342.530 60.400,341.778 60.400 C 341.460 60.400,341.200 60.220,341.200 60.000 C 341.200 59.780,341.020 59.600,340.800 59.600 C 340.580 59.600,340.400 59.703,340.400 59.829 M55.857 62.960 C 53.347 65.397,52.688 66.400,53.600 66.400 C 53.820 66.400,54.000 66.234,54.000 66.032 C 54.000 65.830,55.102 64.562,56.449 63.215 C 57.796 61.868,58.812 60.679,58.706 60.573 C 58.600 60.467,57.318 61.541,55.857 62.960 M82.000 62.983 C 82.000 63.160,84.115 65.430,86.700 68.027 C 89.285 70.624,91.592 73.064,91.827 73.448 C 92.061 73.832,92.575 74.339,92.967 74.573 C 93.933 75.150,106.800 88.046,106.800 88.437 C 106.800 88.607,107.160 88.860,107.600 89.000 C 108.040 89.140,108.400 89.485,108.400 89.767 C 108.400 90.049,108.965 90.712,109.656 91.240 C 111.617 92.738,124.784 106.070,125.517 107.300 C 125.877 107.905,126.410 108.400,126.700 108.400 C 126.990 108.400,128.234 109.480,129.464 110.800 C 132.006 113.526,132.400 113.687,132.400 112.000 C 132.400 110.813,131.817 110.348,131.505 111.285 C 131.416 111.552,120.720 101.157,107.737 88.185 C 82.636 63.107,82.000 62.484,82.000 62.983 M52.100 67.398 C 51.503 68.076,51.434 69.600,52.000 69.600 C 52.220 69.600,52.400 69.251,52.400 68.824 C 52.400 68.397,52.580 67.936,52.800 67.800 C 53.266 67.512,53.339 66.793,52.900 66.815 C 52.735 66.824,52.375 67.086,52.100 67.398 M348.400 69.576 C 348.400 69.783,348.580 70.064,348.800 70.200 C 349.020 70.336,349.200 70.977,349.200 71.624 C 349.200 72.271,349.380 72.800,349.600 72.800 C 350.179 72.800,350.067 70.722,349.443 69.900 C 348.860 69.132,348.400 68.989,348.400 69.576 M50.800 70.800 C 50.800 71.240,50.620 71.600,50.400 71.600 C 50.180 71.600,50.000 72.309,50.000 73.176 C 50.000 74.043,50.180 74.864,50.400 75.000 C 50.641 75.149,50.800 74.612,50.800 73.647 C 50.800 72.767,50.980 71.936,51.200 71.800 C 51.420 71.664,51.600 71.203,51.600 70.776 C 51.600 70.349,51.420 70.000,51.200 70.000 C 50.980 70.000,50.800 70.360,50.800 70.800 M246.000 72.411 C 246.000 72.927,248.265 77.458,249.193 78.800 C 250.379 80.514,253.857 87.711,254.413 89.600 C 254.704 90.590,255.162 91.670,255.431 92.000 C 256.213 92.959,257.248 95.702,257.287 96.914 C 257.307 97.527,257.501 98.139,257.719 98.274 C 257.967 98.427,258.020 98.084,257.860 97.359 C 257.720 96.722,257.484 95.300,257.337 94.200 C 257.189 93.100,256.738 91.610,256.334 90.888 C 255.930 90.166,255.600 89.311,255.600 88.988 C 255.600 88.665,255.420 88.400,255.200 88.400 C 254.980 88.400,254.801 88.085,254.803 87.700 C 254.806 86.800,250.798 78.800,250.343 78.800 C 250.155 78.800,250.000 78.440,250.000 78.000 C 250.000 77.560,249.865 77.199,249.700 77.197 C 249.318 77.193,248.343 75.123,248.602 74.865 C 248.708 74.759,249.132 75.061,249.544 75.536 C 249.957 76.011,250.498 76.400,250.746 76.400 C 250.995 76.400,251.941 77.120,252.848 78.000 C 253.755 78.880,254.745 79.600,255.048 79.600 C 255.352 79.600,255.600 79.876,255.600 80.213 C 255.600 80.549,255.915 80.942,256.300 81.085 C 256.685 81.228,257.291 81.672,257.647 82.072 C 258.003 82.473,258.588 82.800,258.947 82.800 C 259.306 82.800,259.600 83.070,259.600 83.400 C 259.600 84.421,260.279 84.063,260.929 82.700 C 261.270 81.985,262.191 80.702,262.975 79.850 C 264.539 78.148,264.616 78.000,263.940 78.000 C 263.688 78.000,262.869 78.630,262.121 79.400 C 260.529 81.039,259.986 81.118,258.665 79.900 C 258.128 79.405,256.655 78.479,255.392 77.843 C 254.129 77.207,253.014 76.397,252.915 76.043 C 252.816 75.689,251.761 74.770,250.571 74.000 C 249.380 73.230,248.405 72.465,248.403 72.300 C 248.401 72.135,247.860 72.000,247.200 72.000 C 246.540 72.000,246.000 72.185,246.000 72.411 M280.200 73.600 C 280.046 73.849,280.804 74.000,282.200 74.000 C 283.596 74.000,284.354 73.849,284.200 73.600 C 284.064 73.380,283.164 73.200,282.200 73.200 C 281.236 73.200,280.336 73.380,280.200 73.600 M350.000 164.376 C 350.000 255.333,350.002 255.600,350.800 255.600 C 351.240 255.600,351.600 255.420,351.600 255.200 C 351.600 254.980,351.834 254.800,352.120 254.800 C 352.856 254.800,354.793 253.859,354.797 253.500 C 354.799 253.335,355.034 253.200,355.320 253.200 C 356.056 253.200,357.993 252.259,357.997 251.900 C 357.999 251.735,358.270 251.600,358.600 251.600 C 358.930 251.600,359.200 251.420,359.200 251.200 C 359.200 250.980,359.434 250.800,359.720 250.800 C 360.456 250.800,362.393 249.859,362.397 249.500 C 362.399 249.335,362.760 249.200,363.200 249.200 C 363.640 249.200,364.000 249.020,364.000 248.800 C 364.000 248.580,364.360 248.400,364.800 248.400 C 365.240 248.400,365.600 248.220,365.600 248.000 C 365.600 247.780,365.960 247.600,366.400 247.600 C 366.840 247.600,367.200 247.420,367.200 247.200 C 367.200 246.980,366.750 246.800,366.200 246.800 C 365.650 246.800,365.199 246.935,365.197 247.100 C 365.193 247.459,363.256 248.400,362.520 248.400 C 362.234 248.400,361.999 248.535,361.997 248.700 C 361.993 249.037,360.075 250.000,359.409 250.000 C 359.171 250.000,358.717 250.360,358.400 250.800 C 358.083 251.240,357.447 251.600,356.987 251.600 C 356.527 251.600,355.764 251.960,355.292 252.400 C 354.820 252.840,354.042 253.200,353.564 253.200 C 353.085 253.200,352.357 253.589,351.944 254.064 C 351.532 254.539,351.107 254.840,350.999 254.732 C 350.891 254.625,350.801 213.836,350.798 164.090 C 350.795 104.737,350.657 73.559,350.397 73.398 C 350.135 73.236,350.000 104.175,350.000 164.376 M284.800 74.400 C 284.800 74.620,285.235 74.800,285.767 74.800 C 286.298 74.800,286.814 75.025,286.912 75.300 C 287.010 75.575,287.237 75.663,287.416 75.496 C 287.828 75.111,286.431 74.030,285.500 74.013 C 285.115 74.006,284.800 74.180,284.800 74.400 M288.400 75.829 C 288.400 76.253,289.636 77.297,289.867 77.067 C 289.992 76.941,289.817 76.560,289.476 76.219 C 288.841 75.584,288.400 75.424,288.400 75.829 M49.467 81.467 C 49.320 81.613,49.200 120.611,49.200 168.129 C 49.200 251.802,49.177 254.503,48.469 253.862 C 48.066 253.498,47.472 253.200,47.148 253.200 C 46.358 253.200,44.407 252.276,44.403 251.900 C 44.401 251.735,43.950 251.600,43.400 251.600 C 42.850 251.600,42.401 251.735,42.403 251.900 C 42.407 252.259,44.344 253.200,45.080 253.200 C 45.366 253.200,45.601 253.335,45.603 253.500 C 45.607 253.859,47.544 254.800,48.280 254.800 C 48.566 254.800,48.800 254.980,48.800 255.200 C 48.800 255.420,49.070 255.600,49.400 255.600 C 49.931 255.600,50.000 245.644,50.000 168.400 C 50.000 120.440,49.940 81.200,49.867 81.200 C 49.793 81.200,49.613 81.320,49.467 81.467 M258.800 85.176 C 258.800 85.603,258.620 86.064,258.400 86.200 C 258.180 86.336,258.000 86.707,258.000 87.024 C 258.000 87.341,258.180 87.600,258.400 87.600 C 258.620 87.600,258.800 87.240,258.800 86.800 C 258.800 86.360,258.980 86.000,259.200 86.000 C 259.420 86.000,259.600 85.640,259.600 85.200 C 259.600 84.760,259.420 84.400,259.200 84.400 C 258.980 84.400,258.800 84.749,258.800 85.176 M257.467 88.667 C 257.043 89.090,257.157 91.600,257.600 91.600 C 257.820 91.600,258.000 90.880,258.000 90.000 C 258.000 88.365,257.934 88.200,257.467 88.667 M137.899 98.557 C 136.635 99.744,135.600 100.964,135.600 101.269 C 135.600 101.574,135.240 102.083,134.800 102.400 C 134.360 102.717,134.000 103.286,134.000 103.665 C 134.000 104.043,133.820 104.464,133.600 104.600 C 133.380 104.736,133.200 105.287,133.200 105.824 C 133.200 106.361,133.020 106.800,132.800 106.800 C 132.580 106.800,132.400 107.340,132.400 108.000 C 132.400 108.660,132.580 109.200,132.800 109.200 C 133.020 109.200,133.200 108.660,133.200 108.000 C 133.200 107.340,133.380 106.800,133.600 106.800 C 133.820 106.800,134.000 106.350,134.000 105.800 C 134.000 105.250,134.180 104.800,134.400 104.800 C 134.620 104.800,134.800 104.440,134.800 104.000 C 134.800 103.560,134.980 103.200,135.200 103.200 C 135.420 103.200,135.600 102.996,135.600 102.747 C 135.600 102.498,135.916 102.003,136.303 101.647 C 136.689 101.291,137.260 100.505,137.570 99.900 C 137.881 99.295,138.330 98.800,138.568 98.800 C 139.052 98.799,141.200 97.048,141.200 96.653 C 141.200 95.913,139.948 96.636,137.899 98.557 M258.202 101.900 C 258.360 102.285,258.787 103.809,259.152 105.287 C 259.516 106.765,260.024 108.184,260.281 108.441 C 260.637 108.797,260.608 109.121,260.161 109.804 C 259.617 110.634,259.641 110.718,260.487 110.944 C 261.931 111.331,262.000 111.279,262.000 109.800 C 262.000 108.106,262.175 108.075,263.540 109.533 C 264.123 110.156,265.140 110.795,265.800 110.954 C 266.986 111.239,266.983 111.230,265.500 110.207 C 264.675 109.637,264.000 108.998,264.000 108.786 C 264.000 108.574,263.730 108.400,263.400 108.400 C 263.070 108.400,262.800 108.201,262.800 107.957 C 262.800 107.714,262.539 107.614,262.220 107.737 C 261.833 107.885,261.715 107.767,261.863 107.380 C 261.986 107.061,261.886 106.800,261.643 106.800 C 261.399 106.800,261.200 106.455,261.200 106.033 C 261.200 105.612,261.065 105.207,260.900 105.133 C 260.735 105.060,260.167 104.145,259.637 103.100 C 258.740 101.329,257.564 100.347,258.202 101.900 M195.505 107.483 C 196.002 107.579,196.722 107.575,197.105 107.475 C 197.487 107.375,197.080 107.296,196.200 107.301 C 195.320 107.305,195.007 107.387,195.505 107.483 M226.500 110.687 C 227.105 110.778,228.095 110.778,228.700 110.687 C 229.305 110.595,228.810 110.520,227.600 110.520 C 226.390 110.520,225.895 110.595,226.500 110.687 M240.300 111.489 C 241.015 111.578,242.185 111.578,242.900 111.489 C 243.615 111.401,243.030 111.328,241.600 111.328 C 240.170 111.328,239.585 111.401,240.300 111.489 M140.513 209.562 C 122.696 214.149,121.898 241.343,139.400 247.445 C 151.909 251.806,164.846 236.990,160.399 223.397 C 158.075 216.291,155.586 212.989,150.855 210.731 C 148.098 209.415,143.224 208.864,140.513 209.562 M252.513 209.562 C 247.142 210.945,240.800 217.108,240.800 220.945 C 240.800 221.232,240.671 221.595,240.514 221.753 C 237.354 224.913,239.749 238.669,244.200 242.928 C 259.319 257.393,281.120 238.381,271.402 219.205 C 267.894 212.282,259.196 207.842,252.513 209.562 M28.600 246.400 C 28.447 246.647,29.137 246.800,30.400 246.800 C 31.663 246.800,32.353 246.647,32.200 246.400 C 32.064 246.180,31.254 246.000,30.400 246.000 C 29.546 246.000,28.736 246.180,28.600 246.400 M367.800 246.400 C 367.648 246.647,368.329 246.800,369.576 246.800 C 370.689 246.800,371.600 246.620,371.600 246.400 C 371.600 246.180,370.801 246.000,369.824 246.000 C 368.847 246.000,367.936 246.180,367.800 246.400 M25.088 248.246 C 24.190 249.118,23.600 250.070,23.600 250.646 C 23.600 251.171,23.420 251.600,23.200 251.600 C 22.975 251.600,22.800 252.725,22.800 254.176 C 22.800 255.593,22.980 256.864,23.200 257.000 C 23.420 257.136,23.600 257.515,23.600 257.842 C 23.600 259.174,31.793 264.400,33.881 264.400 C 34.185 264.400,34.820 264.760,35.292 265.200 C 35.764 265.640,36.484 266.000,36.892 266.000 C 37.300 266.000,38.020 266.360,38.492 266.800 C 38.964 267.240,39.752 267.600,40.242 267.600 C 40.732 267.600,41.214 267.825,41.312 268.100 C 41.410 268.375,41.627 268.474,41.793 268.319 C 42.324 267.825,39.816 266.000,38.605 266.000 C 38.272 266.000,38.000 265.820,38.000 265.600 C 38.000 265.380,37.640 265.200,37.200 265.200 C 36.760 265.200,36.400 265.020,36.400 264.800 C 36.400 264.580,36.040 264.400,35.600 264.400 C 35.160 264.400,34.800 264.220,34.800 264.000 C 34.800 263.780,34.440 263.600,34.000 263.600 C 33.560 263.600,33.200 263.420,33.200 263.200 C 33.200 262.980,32.851 262.800,32.424 262.800 C 31.997 262.800,31.536 262.620,31.400 262.400 C 31.264 262.180,30.803 262.000,30.376 262.000 C 29.949 262.000,29.600 261.820,29.600 261.600 C 29.600 261.380,29.240 261.200,28.800 261.200 C 28.360 261.200,28.000 261.020,28.000 260.800 C 28.000 260.580,27.683 260.400,27.296 260.400 C 26.908 260.400,26.143 259.841,25.596 259.158 C 25.048 258.475,24.375 257.678,24.100 257.387 C 23.499 256.750,23.410 251.600,24.000 251.600 C 24.220 251.600,24.400 251.302,24.400 250.938 C 24.400 249.909,26.351 247.600,27.220 247.600 C 27.649 247.600,28.000 247.420,28.000 247.200 C 28.000 246.335,26.502 246.873,25.088 248.246 M33.200 247.200 C 33.200 247.420,33.560 247.600,34.000 247.600 C 34.440 247.600,34.800 247.780,34.800 248.000 C 34.800 248.220,35.160 248.400,35.600 248.400 C 36.040 248.400,36.401 248.535,36.403 248.700 C 36.407 249.059,38.344 250.000,39.080 250.000 C 39.366 250.000,39.600 250.180,39.600 250.400 C 39.600 250.620,39.960 250.800,40.400 250.800 C 40.840 250.800,41.200 250.980,41.200 251.200 C 41.200 251.420,41.382 251.600,41.603 251.600 C 41.843 251.600,41.803 251.274,41.507 250.800 C 41.232 250.360,40.817 250.000,40.584 250.000 C 39.923 250.000,38.007 249.035,38.003 248.700 C 38.001 248.535,37.640 248.400,37.200 248.400 C 36.760 248.400,36.400 248.220,36.400 248.000 C 36.400 247.780,36.040 247.600,35.600 247.600 C 35.160 247.600,34.800 247.420,34.800 247.200 C 34.800 246.980,34.440 246.800,34.000 246.800 C 33.560 246.800,33.200 246.980,33.200 247.200 M372.400 247.200 C 372.400 247.420,372.678 247.600,373.018 247.600 C 373.358 247.600,374.078 248.042,374.618 248.582 C 375.158 249.122,375.600 249.842,375.600 250.182 C 375.600 250.522,375.760 250.800,375.955 250.800 C 376.650 250.800,376.997 253.722,376.571 256.000 C 376.300 257.451,373.852 260.400,372.919 260.400 C 372.633 260.400,372.400 260.580,372.400 260.800 C 372.400 261.020,372.040 261.200,371.600 261.200 C 371.160 261.200,370.800 261.380,370.800 261.600 C 370.800 261.820,370.451 262.000,370.024 262.000 C 369.597 262.000,369.136 262.180,369.000 262.400 C 368.864 262.620,368.403 262.800,367.976 262.800 C 367.549 262.800,367.200 262.980,367.200 263.200 C 367.200 263.420,366.840 263.600,366.400 263.600 C 365.960 263.600,365.600 263.780,365.600 264.000 C 365.600 264.220,365.240 264.400,364.800 264.400 C 364.360 264.400,364.000 264.580,364.000 264.800 C 364.000 265.020,363.640 265.200,363.200 265.200 C 362.760 265.200,362.400 265.380,362.400 265.600 C 362.400 265.820,362.040 266.000,361.600 266.000 C 361.160 266.000,360.800 266.180,360.800 266.400 C 360.800 266.620,360.350 266.800,359.800 266.800 C 359.250 266.800,358.800 266.980,358.800 267.200 C 358.800 267.420,358.530 267.600,358.200 267.600 C 357.870 267.600,357.600 267.780,357.600 268.000 C 357.600 268.220,357.330 268.400,357.000 268.400 C 356.670 268.400,356.400 268.580,356.400 268.800 C 356.400 269.461,357.393 269.253,358.308 268.400 C 358.780 267.960,359.419 267.600,359.728 267.600 C 360.037 267.600,361.689 266.880,363.400 266.000 C 365.111 265.120,366.756 264.400,367.055 264.400 C 367.355 264.400,367.600 264.220,367.600 264.000 C 367.600 263.780,367.960 263.600,368.400 263.600 C 368.840 263.600,369.200 263.420,369.200 263.200 C 369.200 262.980,369.560 262.800,370.000 262.800 C 370.440 262.800,370.800 262.620,370.800 262.400 C 370.800 262.180,371.160 262.000,371.600 262.000 C 372.040 262.000,372.400 261.820,372.400 261.600 C 372.400 261.380,372.720 261.200,373.112 261.200 C 373.503 261.200,374.083 260.840,374.400 260.400 C 374.717 259.960,375.194 259.600,375.459 259.600 C 376.021 259.600,377.200 257.406,377.200 256.362 C 377.200 255.969,377.380 255.536,377.600 255.400 C 377.820 255.264,378.000 254.634,378.000 254.000 C 378.000 253.366,377.820 252.736,377.600 252.600 C 377.380 252.464,377.200 251.952,377.200 251.462 C 377.200 250.428,373.946 246.800,373.019 246.800 C 372.679 246.800,372.400 246.980,372.400 247.200 M42.800 268.800 C 42.800 269.020,43.160 269.200,43.600 269.200 C 44.040 269.200,44.400 269.380,44.400 269.600 C 44.400 269.820,44.760 270.000,45.200 270.000 C 45.640 270.000,46.000 270.180,46.000 270.400 C 46.000 270.620,46.360 270.800,46.800 270.800 C 47.240 270.800,47.600 270.980,47.600 271.200 C 47.600 271.420,47.960 271.600,48.400 271.600 C 49.190 271.600,49.200 271.867,49.200 292.320 C 49.200 313.915,49.193 314.000,47.520 314.000 C 47.124 314.000,46.799 314.135,46.797 314.300 C 46.793 314.659,44.856 315.600,44.120 315.600 C 43.834 315.600,43.599 315.735,43.597 315.900 C 43.593 316.259,41.656 317.200,40.920 317.200 C 40.634 317.200,40.399 317.335,40.397 317.500 C 40.393 317.859,38.456 318.800,37.720 318.800 C 37.434 318.800,37.199 318.935,37.197 319.100 C 37.193 319.459,35.256 320.400,34.520 320.400 C 34.234 320.400,33.999 320.535,33.997 320.700 C 33.993 321.059,32.056 322.000,31.320 322.000 C 31.034 322.000,30.799 322.135,30.797 322.300 C 30.793 322.659,28.856 323.600,28.120 323.600 C 27.834 323.600,27.600 323.780,27.600 324.000 C 27.600 324.220,27.365 324.400,27.078 324.400 C 26.081 324.400,23.600 327.061,23.600 328.130 C 23.600 328.693,23.420 329.264,23.200 329.400 C 22.681 329.721,22.681 331.879,23.200 332.200 C 23.442 332.349,23.600 331.804,23.600 330.824 C 23.600 329.931,23.780 329.200,24.000 329.200 C 24.220 329.200,24.400 328.928,24.400 328.595 C 24.400 327.323,25.993 325.200,26.948 325.200 C 27.281 325.200,27.664 325.020,27.800 324.800 C 27.936 324.580,28.397 324.400,28.824 324.400 C 29.251 324.400,29.600 324.220,29.600 324.000 C 29.600 323.780,29.960 323.600,30.400 323.600 C 30.840 323.600,31.201 323.465,31.203 323.300 C 31.207 322.941,33.144 322.000,33.880 322.000 C 34.166 322.000,34.400 321.820,34.400 321.600 C 34.400 321.380,34.760 321.200,35.200 321.200 C 35.640 321.200,36.000 321.020,36.000 320.800 C 36.000 320.580,36.234 320.400,36.520 320.400 C 37.256 320.400,39.193 319.459,39.197 319.100 C 39.199 318.935,39.526 318.800,39.925 318.800 C 40.323 318.800,41.036 318.440,41.508 318.000 C 41.980 317.560,42.518 317.200,42.704 317.200 C 43.297 317.200,45.194 316.211,45.197 315.900 C 45.199 315.735,45.560 315.600,46.000 315.600 C 46.440 315.600,46.800 315.420,46.800 315.200 C 46.800 314.980,47.160 314.800,47.600 314.800 C 48.040 314.800,48.400 314.620,48.400 314.400 C 48.400 314.180,48.760 314.000,49.200 314.000 C 49.990 314.000,50.000 313.733,50.000 292.880 C 50.000 270.866,49.995 270.800,48.320 270.800 C 47.924 270.800,47.600 270.620,47.600 270.400 C 47.600 270.180,47.240 270.000,46.800 270.000 C 46.360 270.000,46.000 269.820,46.000 269.600 C 46.000 269.380,45.640 269.200,45.200 269.200 C 44.760 269.200,44.400 269.020,44.400 268.800 C 44.400 268.580,44.040 268.400,43.600 268.400 C 43.160 268.400,42.800 268.580,42.800 268.800 M354.800 269.600 C 354.800 269.820,354.350 270.000,353.800 270.000 C 353.250 270.000,352.800 270.180,352.800 270.400 C 352.800 270.968,354.071 270.873,354.900 270.243 C 355.679 269.652,355.809 269.200,355.200 269.200 C 354.980 269.200,354.800 269.380,354.800 269.600 M351.200 271.200 C 351.200 271.420,350.930 271.600,350.600 271.600 C 349.675 271.600,349.693 313.507,350.617 313.862 C 350.957 313.992,351.362 313.962,351.517 313.795 C 351.673 313.627,351.575 313.410,351.300 313.312 C 350.310 312.958,350.603 272.530,351.600 271.907 C 352.547 271.316,352.640 270.800,351.800 270.800 C 351.470 270.800,351.200 270.980,351.200 271.200 M163.400 280.829 C 158.072 283.484,157.533 288.890,161.750 297.400 C 168.428 310.878,187.120 315.205,197.905 305.770 L 200.003 303.935 201.902 305.615 C 202.946 306.539,204.520 307.620,205.400 308.017 C 206.280 308.414,207.900 309.149,209.000 309.650 C 212.457 311.223,220.689 311.013,225.200 309.237 C 238.747 303.901,246.458 285.288,236.969 280.827 C 232.052 278.516,226.400 282.380,226.400 288.053 C 226.400 293.704,219.629 298.224,214.028 296.313 C 209.769 294.859,208.371 293.061,207.494 287.906 C 206.798 283.817,206.205 282.766,203.696 281.175 C 199.109 278.266,192.800 281.889,192.800 287.434 C 192.800 299.519,175.987 300.025,174.000 288.000 C 172.913 281.418,168.376 278.349,163.400 280.829 M352.000 314.353 C 352.000 314.548,352.315 314.807,352.700 314.929 C 353.085 315.051,353.850 315.411,354.400 315.728 C 356.328 316.843,357.601 317.332,357.870 317.063 C 358.238 316.696,356.776 315.629,355.883 315.613 C 355.489 315.606,354.780 315.240,354.308 314.800 C 353.435 313.987,352.000 313.709,352.000 314.353 M358.400 317.533 C 358.400 317.936,363.089 320.400,363.856 320.400 C 364.155 320.400,364.400 320.551,364.400 320.736 C 364.400 320.921,365.120 321.310,366.000 321.600 C 366.880 321.890,367.600 322.279,367.600 322.464 C 367.600 322.649,367.960 322.800,368.400 322.800 C 368.840 322.800,369.200 322.980,369.200 323.200 C 369.200 323.420,369.560 323.600,370.000 323.600 C 370.440 323.600,370.800 323.780,370.800 324.000 C 370.800 324.220,371.250 324.400,371.800 324.400 C 372.350 324.400,372.800 324.580,372.800 324.800 C 372.800 325.020,373.070 325.200,373.400 325.200 C 373.730 325.200,374.000 325.050,374.000 324.867 C 374.000 324.459,369.306 322.000,368.527 322.000 C 368.219 322.000,367.580 321.640,367.108 321.200 C 366.636 320.760,365.916 320.400,365.508 320.400 C 365.100 320.400,364.380 320.040,363.908 319.600 C 363.436 319.160,362.716 318.800,362.308 318.800 C 361.900 318.800,361.180 318.440,360.708 318.000 C 359.848 317.199,358.400 316.906,358.400 317.533 M374.800 325.471 C 374.800 326.089,375.780 327.994,376.100 327.997 C 376.265 327.999,376.400 329.350,376.400 331.000 C 376.400 332.650,376.241 334.000,376.047 334.000 C 375.852 334.000,375.582 334.315,375.446 334.700 C 375.311 335.085,375.095 335.625,374.966 335.900 C 374.835 336.182,374.997 336.400,375.337 336.400 C 377.012 336.400,377.903 329.933,376.592 327.304 C 375.951 326.020,374.800 324.843,374.800 325.471 M49.597 329.500 C 49.593 329.859,47.656 330.800,46.920 330.800 C 46.634 330.800,46.400 330.980,46.400 331.200 C 46.400 331.420,46.130 331.600,45.800 331.600 C 45.470 331.600,45.200 331.780,45.200 332.000 C 45.200 332.220,44.840 332.400,44.400 332.400 C 43.960 332.400,43.600 332.580,43.600 332.800 C 43.600 333.020,43.240 333.200,42.800 333.200 C 42.360 333.200,42.000 333.380,42.000 333.600 C 42.000 333.820,41.640 334.000,41.200 334.000 C 40.760 334.000,40.400 334.180,40.400 334.400 C 40.400 334.620,40.130 334.800,39.800 334.800 C 39.470 334.800,39.200 334.980,39.200 335.200 C 39.200 335.420,39.470 335.600,39.800 335.600 C 40.130 335.600,40.400 335.420,40.400 335.200 C 40.400 334.980,40.760 334.800,41.200 334.800 C 41.640 334.800,42.000 334.620,42.000 334.400 C 42.000 334.180,42.360 334.000,42.800 334.000 C 43.240 334.000,43.600 333.820,43.600 333.600 C 43.600 333.380,43.960 333.200,44.400 333.200 C 44.840 333.200,45.200 333.020,45.200 332.800 C 45.200 332.580,45.560 332.400,46.000 332.400 C 46.440 332.400,46.800 332.220,46.800 332.000 C 46.800 331.780,47.145 331.600,47.567 331.600 C 47.988 331.600,48.393 331.437,48.467 331.238 C 48.808 330.312,50.600 330.597,50.734 331.600 C 50.923 333.011,51.600 333.605,51.600 332.360 C 51.600 331.039,50.729 329.207,50.100 329.203 C 49.825 329.201,49.599 329.335,49.597 329.500 M349.200 330.576 C 349.200 331.333,349.020 332.064,348.800 332.200 C 348.580 332.336,348.400 332.797,348.400 333.224 C 348.400 333.651,348.580 334.000,348.800 334.000 C 349.020 334.000,349.200 333.651,349.200 333.224 C 349.200 332.797,349.380 332.336,349.600 332.200 C 349.820 332.064,350.000 331.620,350.000 331.214 C 350.000 330.672,350.213 330.531,350.800 330.684 C 351.240 330.799,351.600 331.052,351.600 331.247 C 351.600 331.441,351.834 331.600,352.120 331.600 C 352.856 331.600,354.793 332.541,354.797 332.900 C 354.799 333.065,355.034 333.200,355.320 333.200 C 356.056 333.200,357.993 334.141,357.997 334.500 C 357.999 334.665,358.241 334.800,358.536 334.800 C 358.831 334.800,360.839 335.700,363.000 336.800 C 366.935 338.803,368.138 339.147,368.600 338.400 C 368.747 338.162,368.271 338.000,367.424 338.000 C 366.641 338.000,366.000 337.820,366.000 337.600 C 366.000 337.380,365.640 337.200,365.200 337.200 C 364.760 337.200,364.400 337.020,364.400 336.800 C 364.400 336.580,364.040 336.400,363.600 336.400 C 363.160 336.400,362.800 336.220,362.800 336.000 C 362.800 335.780,362.440 335.600,362.000 335.600 C 361.560 335.600,361.200 335.420,361.200 335.200 C 361.200 334.980,360.840 334.800,360.400 334.800 C 359.960 334.800,359.600 334.620,359.600 334.400 C 359.600 334.180,359.364 334.000,359.075 334.000 C 358.787 334.000,358.164 333.640,357.692 333.200 C 357.220 332.760,356.466 332.400,356.017 332.400 C 355.568 332.400,355.200 332.220,355.200 332.000 C 355.200 331.780,354.930 331.600,354.600 331.600 C 354.270 331.600,354.000 331.420,354.000 331.200 C 354.000 330.980,353.766 330.800,353.480 330.800 C 352.744 330.800,350.807 329.859,350.803 329.500 C 350.801 329.335,350.440 329.200,350.000 329.200 C 349.355 329.200,349.200 329.467,349.200 330.576 M23.600 334.122 C 23.600 335.076,26.229 338.304,26.658 337.876 C 26.791 337.743,26.427 337.072,25.850 336.386 C 25.272 335.700,24.690 334.702,24.557 334.169 C 24.248 332.938,23.600 332.906,23.600 334.122 M51.600 335.200 C 51.600 335.860,51.780 336.400,52.000 336.400 C 52.220 336.400,52.400 336.760,52.400 337.200 C 52.400 337.640,52.580 338.000,52.800 338.000 C 53.020 338.000,53.200 337.640,53.200 337.200 C 53.200 336.760,53.020 336.400,52.800 336.400 C 52.580 336.400,52.400 335.860,52.400 335.200 C 52.400 334.540,52.220 334.000,52.000 334.000 C 51.780 334.000,51.600 334.540,51.600 335.200 M347.600 336.200 C 347.600 336.750,347.420 337.200,347.200 337.200 C 346.980 337.200,346.800 337.560,346.800 338.000 C 346.800 338.440,346.980 338.800,347.200 338.800 C 347.420 338.800,347.600 338.440,347.600 338.000 C 347.600 337.560,347.780 337.200,348.000 337.200 C 348.220 337.200,348.400 336.750,348.400 336.200 C 348.400 335.650,348.220 335.200,348.000 335.200 C 347.780 335.200,347.600 335.650,347.600 336.200 M37.200 335.925 C 37.200 336.104,36.570 336.498,35.800 336.800 C 35.030 337.102,34.400 337.496,34.400 337.675 C 34.400 338.295,35.853 337.996,36.708 337.200 C 37.180 336.760,37.844 336.400,38.183 336.400 C 38.522 336.400,38.800 336.220,38.800 336.000 C 38.800 335.780,38.440 335.600,38.000 335.600 C 37.560 335.600,37.200 335.746,37.200 335.925 M27.600 338.432 C 27.600 338.634,28.104 338.800,28.720 338.800 C 29.336 338.800,30.056 339.016,30.320 339.280 C 30.693 339.653,30.907 339.653,31.280 339.280 C 31.544 339.016,32.264 338.800,32.880 338.800 C 33.496 338.800,34.000 338.634,34.000 338.432 C 34.000 338.229,32.560 338.063,30.800 338.063 C 29.040 338.063,27.600 338.229,27.600 338.432 M370.400 338.400 C 370.400 338.620,370.850 338.800,371.400 338.800 C 371.950 338.800,372.400 338.620,372.400 338.400 C 372.400 338.180,371.950 338.000,371.400 338.000 C 370.850 338.000,370.400 338.180,370.400 338.400 M53.200 339.400 C 53.200 339.950,53.380 340.400,53.600 340.400 C 53.820 340.400,54.000 340.760,54.000 341.200 C 54.000 341.640,54.180 342.000,54.400 342.000 C 54.620 342.000,54.800 342.360,54.800 342.800 C 54.800 343.240,54.980 343.600,55.200 343.600 C 55.420 343.600,55.600 343.960,55.600 344.400 C 55.600 344.840,55.780 345.200,56.000 345.200 C 56.220 345.200,56.400 345.560,56.400 346.000 C 56.400 346.440,56.536 346.800,56.702 346.800 C 56.869 346.800,57.244 347.340,57.536 348.000 C 58.047 349.154,58.800 349.631,58.800 348.800 C 58.800 348.580,58.620 348.400,58.400 348.400 C 58.180 348.400,58.000 348.040,58.000 347.600 C 58.000 347.160,57.820 346.800,57.600 346.800 C 57.380 346.800,57.200 346.440,57.200 346.000 C 57.200 345.560,57.020 345.200,56.800 345.200 C 56.580 345.200,56.400 344.840,56.400 344.400 C 56.400 343.960,56.220 343.600,56.000 343.600 C 55.780 343.600,55.600 343.240,55.600 342.800 C 55.600 342.360,55.420 342.000,55.200 342.000 C 54.980 342.000,54.800 341.640,54.800 341.200 C 54.800 340.760,54.620 340.400,54.400 340.400 C 54.180 340.400,54.000 339.950,54.000 339.400 C 54.000 338.850,53.820 338.400,53.600 338.400 C 53.380 338.400,53.200 338.850,53.200 339.400 M346.000 340.167 C 346.000 340.698,345.775 341.214,345.500 341.312 C 345.225 341.410,345.126 341.627,345.281 341.793 C 345.704 342.248,346.800 340.975,346.800 340.029 C 346.800 339.573,346.620 339.200,346.400 339.200 C 346.180 339.200,346.000 339.635,346.000 340.167 M343.600 345.000 C 343.050 346.208,342.465 347.198,342.300 347.199 C 342.135 347.199,342.000 347.470,342.000 347.800 C 342.000 348.934,342.676 348.397,343.637 346.500 C 344.167 345.455,344.735 344.540,344.900 344.467 C 345.065 344.393,345.200 343.988,345.200 343.567 C 345.200 342.226,344.630 342.736,343.600 345.000 M340.900 349.798 C 340.625 350.111,340.400 350.568,340.400 350.814 C 340.400 351.061,339.658 351.976,338.750 352.848 C 337.843 353.720,337.181 354.514,337.280 354.613 C 337.565 354.899,341.200 351.110,341.200 350.526 C 341.200 350.237,341.380 350.000,341.600 350.000 C 341.820 350.000,342.000 349.820,342.000 349.600 C 342.000 349.037,341.489 349.129,340.900 349.798 M58.800 350.304 C 58.800 350.471,59.160 350.832,59.600 351.107 C 60.530 351.688,60.654 351.397,59.829 350.571 C 59.198 349.941,58.800 349.837,58.800 350.304 M60.851 353.100 C 61.153 353.485,61.871 354.250,62.448 354.800 C 63.024 355.350,63.603 356.115,63.735 356.500 C 63.981 357.217,64.800 357.483,64.800 356.845 C 64.800 356.386,61.062 352.400,60.631 352.400 C 60.450 352.400,60.549 352.715,60.851 353.100 M65.400 358.400 C 65.536 358.620,65.811 358.800,66.011 358.800 C 66.211 358.800,67.495 359.880,68.865 361.200 C 70.235 362.520,71.591 363.600,71.878 363.600 C 72.165 363.600,72.400 363.750,72.400 363.932 C 72.400 364.115,72.895 364.520,73.500 364.832 C 74.105 365.144,74.725 365.574,74.878 365.788 C 75.031 366.002,75.285 366.048,75.442 365.891 C 75.736 365.597,75.090 364.943,72.783 363.200 C 70.036 361.123,66.995 358.611,66.867 358.311 C 66.793 358.140,66.378 358.000,65.943 358.000 C 65.508 358.000,65.264 358.180,65.400 358.400 M334.000 358.400 C 334.000 358.620,333.722 358.800,333.382 358.800 C 333.042 358.800,332.344 359.205,331.832 359.700 C 330.530 360.958,329.232 362.000,328.967 362.000 C 328.844 362.000,328.514 362.225,328.235 362.500 C 327.955 362.775,327.130 363.450,326.400 364.000 C 325.670 364.550,324.845 365.225,324.565 365.500 C 324.286 365.775,323.774 366.000,323.429 366.000 C 323.083 366.000,322.800 366.180,322.800 366.400 C 322.800 366.620,322.530 366.800,322.200 366.800 C 321.870 366.800,321.600 366.980,321.600 367.200 C 321.600 367.420,321.870 367.600,322.200 367.600 C 322.530 367.600,322.800 367.462,322.800 367.294 C 322.800 367.126,323.475 366.689,324.300 366.323 C 325.125 365.957,326.287 365.194,326.883 364.629 C 327.478 364.063,328.131 363.600,328.334 363.600 C 328.537 363.600,329.445 362.880,330.352 362.000 C 331.259 361.120,332.147 360.400,332.326 360.400 C 332.504 360.400,333.168 359.860,333.800 359.200 C 334.432 358.540,334.736 358.000,334.475 358.000 C 334.214 358.000,334.000 358.180,334.000 358.400 M76.893 366.800 C 77.168 367.240,77.583 367.600,77.816 367.600 C 78.477 367.600,80.393 368.565,80.397 368.900 C 80.399 369.065,80.665 369.200,80.988 369.200 C 81.311 369.200,82.217 369.560,83.000 370.000 C 84.548 370.870,85.600 371.031,85.600 370.400 C 85.600 370.180,85.150 370.000,84.600 370.000 C 84.050 370.000,83.600 369.820,83.600 369.600 C 83.600 369.380,83.240 369.200,82.800 369.200 C 82.360 369.200,82.000 369.020,82.000 368.800 C 82.000 368.580,81.640 368.400,81.200 368.400 C 80.760 368.400,80.400 368.220,80.400 368.000 C 80.400 367.780,80.040 367.600,79.600 367.600 C 79.160 367.600,78.800 367.420,78.800 367.200 C 78.800 366.980,78.440 366.800,78.000 366.800 C 77.560 366.800,77.200 366.620,77.200 366.400 C 77.200 366.180,77.018 366.000,76.797 366.000 C 76.557 366.000,76.597 366.326,76.893 366.800 M320.000 368.000 C 320.000 368.220,319.640 368.400,319.200 368.400 C 318.760 368.400,318.400 368.580,318.400 368.800 C 318.400 369.368,319.671 369.273,320.500 368.643 C 321.359 367.991,321.396 367.600,320.600 367.600 C 320.270 367.600,320.000 367.780,320.000 368.000 M316.600 369.600 C 316.464 369.820,316.003 370.000,315.576 370.000 C 315.149 370.000,314.800 370.180,314.800 370.400 C 314.800 370.975,316.475 370.869,317.300 370.243 C 317.685 369.951,318.000 369.597,318.000 369.456 C 318.000 369.045,316.871 369.161,316.600 369.600 M86.000 370.971 C 86.000 371.065,86.568 371.425,87.261 371.771 C 88.674 372.475,90.800 372.613,90.800 372.000 C 90.800 371.780,90.170 371.600,89.400 371.600 C 88.630 371.600,88.000 371.420,88.000 371.200 C 88.000 370.980,87.550 370.800,87.000 370.800 C 86.450 370.800,86.000 370.877,86.000 370.971 M312.400 371.200 C 312.400 371.420,311.860 371.600,311.200 371.600 C 310.540 371.600,310.000 371.780,310.000 372.000 C 310.000 372.220,310.439 372.400,310.976 372.400 C 311.513 372.400,312.064 372.220,312.200 372.000 C 312.336 371.780,312.797 371.600,313.224 371.600 C 313.651 371.600,314.000 371.420,314.000 371.200 C 314.000 370.980,313.640 370.800,313.200 370.800 C 312.760 370.800,312.400 370.980,312.400 371.200 M91.600 372.800 C 91.600 373.020,91.960 373.200,92.400 373.200 C 92.840 373.200,93.200 373.020,93.200 372.800 C 93.200 372.580,92.840 372.400,92.400 372.400 C 91.960 372.400,91.600 372.580,91.600 372.800 M307.600 372.800 C 307.600 373.020,307.960 373.200,308.400 373.200 C 308.840 373.200,309.200 373.020,309.200 372.800 C 309.200 372.580,308.840 372.400,308.400 372.400 C 307.960 372.400,307.600 372.580,307.600 372.800 M95.000 373.600 C 95.136 373.820,95.867 374.000,96.624 374.000 C 97.381 374.000,98.000 373.820,98.000 373.600 C 98.000 373.380,97.269 373.200,96.376 373.200 C 95.396 373.200,94.851 373.358,95.000 373.600 M302.800 373.600 C 302.800 373.820,303.599 374.000,304.576 374.000 C 305.553 374.000,306.464 373.820,306.600 373.600 C 306.752 373.353,306.071 373.200,304.824 373.200 C 303.711 373.200,302.800 373.380,302.800 373.600 M101.390 374.383 C 101.724 374.924,299.865 374.942,300.199 374.401 C 300.365 374.133,267.345 374.000,200.800 374.000 C 137.329 374.000,101.239 374.139,101.390 374.383 " stroke="none" fill="#3e312f" fill-rule="evenodd"></path></g></svg>